<svg width="379" height="6" viewBox="0 0 379 6" fill="none" xmlns="http://www.w3.org/2000/svg">
  <path d="M310.088 0H40.198V6H310.088V0Z" fill="#1CB0A8"/>
  <path d="M64.6119 6H40.186V0H58.7829L64.6119 6Z" fill="#FFC0D1"/>
  <path d="M310.833 6H296.291H281.75L288.651 0H310.818L310.833 6Z" fill="#EE4056"/>
  <path d="M172.793 0L163.567 6H67.1221L57.8826 0H172.793Z" fill="#1CAFA1"/>
  <path d="M290.904 0L281.777 6H163.72L172.946 0H290.904Z" fill="#94DAD6"/>
  <path d="M0.00244141 3C0.00244141 1.34315 1.34559 0 3.00244 0H40.1989V6H0.00244141V3Z" fill="#1CB0A8"/>
  <path d="M378.997 3C378.997 1.34315 377.654 0 375.997 0H310.833V6H378.997V3Z" fill="#1CB0A8"/>
  <path d="M243.737 6H219.311V0H237.908L243.737 6Z" fill="#FFC25E"/>
</svg>
