<svg id="Layer_1" data-name="Layer 1" xmlns="http://www.w3.org/2000/svg" xmlns:xlink="http://www.w3.org/1999/xlink" viewBox="0 0 693 183">
  <defs>
    <mask id="mask" x="632.69" y="18.2" width="60.04" height="120.65" maskUnits="userSpaceOnUse">
      <g id="pktlogorounded_rgb-f" data-name="pktlogorounded rgb-f">
        <polygon id="pktlogorounded_rgb-e" data-name="pktlogorounded rgb-e" points="632.69 18.2 692.73 18.2 692.73 138.85 632.69 138.85 632.69 18.2" fill="#fff" fill-rule="evenodd"/>
      </g>
    </mask>
    <mask id="mask-2" x="462.32" y="0" width="73.76" height="139.14" maskUnits="userSpaceOnUse">
      <g id="pktlogorounded_rgb-d" data-name="pktlogorounded rgb-d">
        <polygon id="pktlogorounded_rgb-c" data-name="pktlogorounded rgb-c" points="462.32 0 536.08 0 536.08 139.13 462.32 139.13 462.32 0" fill="#fff" fill-rule="evenodd"/>
      </g>
    </mask>
    <mask id="mask-3" x="145.04" y="41.84" width="96.63" height="141.1" maskUnits="userSpaceOnUse">
      <g id="pktlogorounded_rgb-b" data-name="pktlogorounded rgb-b">
        <polygon id="pktlogorounded_rgb-a" data-name="pktlogorounded rgb-a" points="145.04 41.84 241.67 41.84 241.67 182.94 145.04 182.94 145.04 41.84" fill="#fff" fill-rule="evenodd"/>
      </g>
    </mask>
  </defs>
  <title>Pocket Logo</title>
  <path id="logo" d="M84.06,83.31l-25.52,24a6.69,6.69,0,0,1-4.88,2.07,7.22,7.22,0,0,1-5.25-2.07l-25.14-24a7.59,7.59,0,0,1,0-10.51c2.81-2.63,7.5-3,10.32,0L53.66,92.13,74.11,72.8c2.63-3,7.32-2.63,10,0a8,8,0,0,1,0,10.51M97,43.53H10.32A10.1,10.1,0,0,0,0,53.47V85.56c0,29.08,24,53.29,53.66,53.29A53.5,53.5,0,0,0,107,85.56V53.47A9.89,9.89,0,0,0,97,43.53" fill="#ef4056" fill-rule="evenodd"/>
  <g mask="url(#mask)">
    <path id="t" d="M687.48,120.65a8.25,8.25,0,0,0-4.88,2.06c-2.63,2.25-5.82,4.5-10.32,4.5-7.69,0-12-4.69-12-15.38V54l23.83.37c3.38,0,5.63-2.06,5.63-5.25,0-3.38-2.25-5.44-5.63-5.44l-23.83.18V24.58c0-3.75-2.63-6.38-5.82-6.38a6.18,6.18,0,0,0-6.19,6.38V43.9l-10.13-.18a5.12,5.12,0,0,0-5.44,5.44,5.17,5.17,0,0,0,5.44,5.25L648.26,54V112.2c0,18.2,11.07,26.65,23.83,26.65a24.2,24.2,0,0,0,18-7.32c1.32-1.5,2.63-3.19,2.63-5.44a5.07,5.07,0,0,0-5.25-5.44" fill="#808285" fill-rule="evenodd"/>
  </g>
  <path id="e" d="M628.94,85.75c0-21-18.39-43.16-43-43.16-26.65,0-46.53,22-46.53,48.41s20.26,47.85,46.72,47.85c13.13,0,25.89-4.88,34.33-13.14,1.88-1.87,3.38-3.94,3.38-6a5.12,5.12,0,0,0-5.44-5.44,8.1,8.1,0,0,0-5.26,2.06c-7.88,6.94-15.94,10.88-27,10.88-17.23,0-32.6-13.11-34.2-32.65h67C625.37,94.56,628.94,91.19,628.94,85.75Zm-76.65-1.5c2.76-19.7,17.31-30,33.68-30,17.45,0,29.64,14.64,30.39,30Z" fill="#808285" fill-rule="evenodd"/>
  <g mask="url(#mask-2)">
    <path id="k" d="M495.31,86.25l34.93-31.46c3.19-2.82,3.57-6.94,1.13-9.57-2.63-2.82-6.57-2.06-9.38.56L474.52,90.32V7.13c0-4.32-1.88-7.13-5.82-7.13-4.32,0-6.38,2.81-6.38,7.13V131.9c0,4.13,2.44,6.95,6.38,6.95,3.56,0,5.82-2.82,5.82-6.95V105l12.16-11L525,136.59c2.44,2.63,6.57,3.57,9.19,1.13,3-2.81,2.07-6.57-.18-9.19Z" fill="#808285" fill-rule="evenodd"/>
  </g>
  <path id="c" d="M440.18,109.2c-1.69,0-3.56,1.31-4.69,2.81-5.25,6.95-16.51,15.2-29.08,15.2-18.77,0-34.9-14.82-34.9-36.21,0-22.89,16.13-36.59,34.9-36.59,13.69,0,21.2,6.57,27.58,14.26a6.65,6.65,0,0,0,4.88,2.63c2.81,0,5.63-2.06,5.63-4.88,0-2.06-1.32-4.13-2.44-5.82-7.7-11.07-20.64-17.45-35.65-17.45A47.73,47.73,0,0,0,358.94,91c0,26.08,21.39,47.85,47.47,47.85,16.13,0,30-9.39,37.33-19.14a8.35,8.35,0,0,0,2.07-4.88,5.42,5.42,0,0,0-5.63-5.63" fill="#808285" fill-rule="evenodd"/>
  <path id="o" d="M300.21,127.21c-19.33,0-35.46-16.32-35.46-36.21,0-20.08,16.13-36.78,35.46-36.78,19.7,0,35.46,16.7,35.46,36.78,0,19.89-15.76,36.21-35.46,36.21m.37-84.62A48.13,48.13,0,0,0,252.36,91c0,26.46,21,47.85,48.22,47.85,25.52,0,47.66-21.39,47.66-47.85s-22.33-48.41-47.66-48.41" fill="#808285" fill-rule="evenodd"/>
  <g mask="url(#mask-3)">
    <path id="p" d="M193.82,127.21c-19.32,0-35.46-16.32-35.46-36.21,0-20.08,16.14-36.78,35.46-36.78,19.7,0,35.46,16.7,35.46,36.78,0,19.89-15.76,36.21-35.46,36.21M194,42.59c-14.64,0-27.58,8.26-36.78,19.33l-.37-13.14c-.19-4.69-2.44-6.94-5.82-6.94-3.56,0-6,2.82-6,6.76v128a6.06,6.06,0,0,0,6.19,6.38c3.75,0,6-2.82,6-6.57V120.46c9.2,10.88,22.14,18.39,36.78,18.39A47.53,47.53,0,0,0,241.67,91c0-26.46-21-48.41-47.66-48.41" fill="#808285" fill-rule="evenodd"/>
  </g>
</svg>
