<svg width="70" height="62" viewBox="0 0 70 62" fill="none" xmlns="http://www.w3.org/2000/svg">
    <path d="M67 15H27V55H67V15Z" fill="#DCEAFF"/>
    <path d="M61.9345 31.0868L61.937 31.5312C61.8989 31.5159 61.8862 31.4017 61.9345 31.0868Z" fill="#202020"/>
    <path d="M37.0263 5.37667C37.039 5.34358 37.0517 5.3054 37.0645 5.2774C37.0441 5.34867 37.0339 5.37158 37.0263 5.37667Z" fill="#202020"/>
    <path d="M61.5787 48.2686C61.5813 48.2584 61.5813 48.2533 61.5838 48.2457C61.599 48.2102 61.6117 48.1695 61.627 48.1391L61.5787 48.2686Z" fill="#202020"/>
    <path d="M65.5344 26.387C64.5391 32.1379 64.6382 33.7325 63.3407 39.6408C62.8304 42.4795 62.1601 45.4857 61.5812 48.2456C61.0226 49.5025 60.8804 51.8815 60.3243 53.3872L60.3827 54.0245C60.1923 54.5425 60.012 55.162 60.0019 55.718L60.0577 55.6926C59.7734 56.4671 59.6794 57.3862 59.5372 57.7721L59.5956 57.7493L59.4915 58.2342L59.3138 59.1001L59.4407 58.8233C59.1894 59.8288 58.9659 60.8088 58.7628 61.7813C57.996 61.6213 57.2521 61.4741 56.5259 61.3395C56.1603 61.2735 55.8023 61.21 55.4468 61.1465L55.2005 61.1034L55.0533 61.0805C54.9542 61.0653 54.8578 61.0526 54.7613 61.0373L54.906 60.8469C52.1511 60.5625 51.2422 59.9379 48.7412 59.7475L48.7641 59.8059C45.7781 58.6583 43.8028 59.2473 40.7153 58.1098C41.1012 58.252 40.5249 58.186 40.5477 58.2419C39.0903 57.9016 37.5288 57.569 37.5846 57.1526C36.5132 56.952 36.6884 57.1145 36.5182 57.2465C36.5589 57.0663 35.6448 56.8149 34.812 56.6423L35.1827 56.787L32.8011 56.2665L33.3368 56.0151C32.0495 55.8704 32.9357 56.368 31.7347 56.0532L31.8032 55.7739C30.9196 55.6343 30.2011 55.6216 29.4851 55.6292C29.1271 55.6342 28.7691 55.6393 28.3933 55.6419H28.3222C28.2968 55.6419 28.2486 55.6368 28.213 55.6343C28.1343 55.6292 28.0556 55.6216 27.9769 55.6165C27.8144 55.6012 27.6494 55.586 27.4792 55.5733C27.1365 55.5403 26.7734 55.5022 26.3875 55.454C25.8771 55.36 25.3668 55.2661 24.8488 55.1696C24.991 54.4307 25.1306 53.6868 25.2728 52.9429C25.3921 52.3462 25.5089 51.7444 25.6283 51.1452C25.806 50.287 25.9888 49.4238 26.1793 48.5605C26.5626 46.8365 26.946 45.1074 27.3294 43.3935C28.0835 39.9633 28.7742 36.5889 29.1398 33.3922L28.9824 33.0621C28.6954 32.8768 29.7898 31.3381 29.5511 31.0309L29.838 30.2946C29.8228 30.0686 29.8507 29.604 29.7085 29.9721C29.8329 29.2637 29.8863 29.2561 30.0767 28.7635L30.0284 27.9688C30.4144 25.1505 31.2396 22.8526 31.7271 19.9023C32.0089 16.3019 33.6415 9.73594 34.586 5.95277C34.7892 5.22914 34.9669 4.4852 35.1218 3.72094C35.1599 3.52544 35.1979 3.32993 35.236 3.13442C35.2919 2.83736 35.3452 2.54029 35.4011 2.24322C35.5077 1.63639 35.6143 1.02448 35.721 0.410027C36.5411 0.45319 37.3663 0.496357 38.194 0.53952L38.5139 0.554754L38.7171 0.559829L39.1208 0.569988L39.9307 0.587763C41.02 0.613153 42.1194 0.643622 43.2112 0.707098C45.3922 0.83659 47.5479 1.09303 49.5486 1.61861C49.7391 1.60338 50.1935 1.78111 50.1834 1.81666C51.8896 2.09595 53.5933 2.39556 55.2843 2.75103C55.2843 2.75103 55.6703 2.8272 56.3025 2.97446C56.6199 3.0481 56.9982 3.13696 57.4247 3.23598C57.8488 3.34262 58.3185 3.46196 58.8161 3.58891C60.8093 4.10687 63.2468 4.85336 65.0622 5.56937C66.8801 6.28284 68.076 6.93284 67.6546 7.16643C67.4464 7.28323 66.8268 7.30353 65.6817 7.19436C64.5341 7.09533 62.8558 6.86682 60.5122 6.57737L60.6163 6.67639C57.8894 6.1178 56.1857 5.77503 54.383 5.03363C54.0021 5.37894 52.1384 4.61976 51.4707 4.64008L51.524 4.68578C49.9117 4.05102 48.043 4.36078 46.4738 3.84281C46.5322 3.88598 46.55 4.00277 46.9207 4.06625C46.3367 3.95199 45.6436 3.82758 45.0824 3.75141C44.5213 3.68032 44.0897 3.67016 44.0313 3.78695C42.8633 3.6143 41.4922 3.48227 40.1669 3.35278C39.8317 3.31977 39.5016 3.28677 39.1766 3.25376C39.0141 3.23599 38.8516 3.21821 38.6917 3.20298C38.613 3.19282 38.5317 3.1852 38.453 3.17758L38.3362 3.16489L38.3083 3.16235L38.3007 3.15982L38.2829 3.15727C38.1001 3.11919 37.9071 3.07095 37.6887 2.99986C37.6278 3.10396 37.5567 3.20044 37.4704 3.29692C37.4958 3.29184 37.5186 3.28677 37.5415 3.28423C37.4628 3.3477 37.4094 3.43149 37.3739 3.51274C37.3663 3.53305 37.3587 3.55336 37.3511 3.57367C37.3409 3.61684 37.3307 3.66 37.3206 3.70063C37.3028 3.78949 37.285 3.87582 37.2698 3.96215C37.2089 4.31254 37.1632 4.6807 36.9854 5.24183C37.0057 5.31038 37.0057 5.39417 37.021 5.38401C36.5487 6.45549 36.3532 8.64923 36.0688 9.53535L36.2186 9.62422L35.754 11.851L35.8784 11.0105C35.3808 11.2162 35.8327 12.7523 35.236 14.3189C35.0024 15.8449 33.7253 17.2185 33.6415 18.8333C33.2911 19.5443 34.1062 18.2367 33.7304 19.3285C33.9538 19.4097 33.9767 18.8308 34.1036 19.1558C33.7837 20.2374 33.9919 21.0093 33.5755 22.3372L33.7456 22.4261C33.0778 24.1374 33.3419 25.8183 32.8011 26.938C32.3034 28.7382 33.1007 28.2659 32.3821 30.1042L32.4837 30.8913C32.3669 31.7139 32.0749 31.4168 32.0191 32.3436C32.1841 32.3182 31.9226 33.509 32.1689 33.0088C32.0165 35.101 31.0339 37.0942 30.9222 39.8668C30.5109 40.3949 30.4296 41.7838 30.1224 42.1773C30.2392 42.2738 29.6222 44.8992 30.196 43.4291C30.2443 43.3021 30.2849 43.0711 30.2316 43.0761L30.4423 42.9289C30.4829 44.5285 29.7238 45.6837 29.4851 47.2148C29.513 46.7527 29.6425 46.156 29.4445 46.5343L29.1982 47.9511L29.4038 47.687L29.0865 49.8071L28.957 49.4822C28.8554 50.5308 29.0992 50.9523 28.6142 52.0618C28.3679 52.5595 28.5533 51.0386 28.2867 52.1151C28.2638 52.3157 28.2765 52.3183 28.2816 52.3817C28.2867 52.4325 28.2943 52.4833 28.2994 52.5366C28.312 52.6356 28.3298 52.722 28.3476 52.7956C28.5203 52.7854 28.6624 52.7753 28.7742 52.7626L28.8529 52.755H28.863L28.9113 52.7626L29.0078 52.7753L29.2033 52.8032C29.4622 52.8413 29.7161 52.8794 29.965 52.9175C29.7618 53.0927 30.2341 53.1765 30.714 53.311L30.8054 53.1409C32.6208 53.7477 31.5646 52.8769 33.3774 53.4304L33.2378 53.2729L33.6542 53.7427C35.2563 54.4206 34.6267 53.5421 36.3888 54.385C35.66 54.2149 35.9673 54.7151 36.8839 54.8116L36.6884 54.5933C37.1809 54.7253 37.3333 54.8294 37.6735 54.8573C37.3942 54.7075 37.5643 54.5755 38.293 54.7456L37.8411 54.4333L39.169 55.0198C40.276 55.0401 41.9315 55.5987 42.419 55.4387C42.419 55.4387 44.7473 55.7612 45.2246 56.1294C44.793 55.8729 46.0777 56.0532 45.7528 55.7891C46.3139 56.0913 48.048 56.5839 48.7945 56.5204L48.665 56.4721C51.3183 56.7667 53.0804 57.6096 55.4722 57.8102C55.4367 57.8585 55.4874 57.9016 55.5789 57.9423C55.6246 57.9626 55.6804 57.9829 55.7414 58.0032L55.7871 58.0184L55.8099 58.026L55.815 58.0311L55.8353 58.0463C55.8886 58.0895 55.9622 58.1428 55.9242 58.2749C56.107 58.3688 56.3177 58.417 56.4751 58.4297C56.4929 58.2546 56.4929 58.0794 56.4878 57.9397C56.4853 57.8737 56.4828 57.8102 56.4802 57.7493V57.7086V57.6883L56.4878 57.6249C56.5005 57.5385 56.5132 57.4573 56.5259 57.376C56.6351 56.7286 56.8052 56.2284 57.1937 55.9466C57.4501 54.8522 57.2495 54.6009 57.3181 54.0245L57.2242 54.2784C57.6888 52.2243 57.8107 51.6251 58.0874 50.0864C58.3159 49.3349 58.7222 49.2892 58.8923 47.8978C58.6536 48.3117 58.7907 47.7581 58.8898 47.2427C58.8034 47.5677 58.7273 47.6566 58.7552 46.9634C58.8212 46.8771 58.8771 46.7374 58.9279 46.6029C58.9177 46.5953 58.9126 46.5673 58.8948 46.5775C59.1132 45.7294 59.131 45.8894 59.0777 46.2906C59.1056 46.2753 59.1284 46.3134 59.1462 46.4454C59.1208 45.5187 59.6362 43.9673 59.395 43.8099C59.9511 41.2429 60.5732 39.4504 61.086 37.3252C60.9972 37.0586 60.7814 37.5359 60.6112 38.1504L60.9515 36.6371C60.756 36.6117 60.6722 37.4902 60.5427 37.9523C60.5757 36.0785 61.571 34.2758 61.6929 32.0948L61.9315 31.6834V31.5514C62.0103 31.5743 62.2134 31.1172 62.2997 30.8075C62.188 30.4749 61.9062 30.7542 62.1194 29.703C62.1169 28.8397 62.6552 27.3544 62.9548 26.2829C62.871 26.8745 63.0005 26.7044 63.1097 26.4632C63.2163 25.9376 63.1046 25.6024 63.2569 25.2114L63.0386 25.1175C63.2138 25.3663 63.5337 23.787 63.6632 23.6118C63.5515 23.2792 63.361 24.4015 63.2087 24.5081C63.6352 22.4007 63.422 23.4544 63.846 21.3495C64.2345 20.2577 64.0212 21.5958 64.3259 21.0956C64.562 20.1105 64.9048 19.171 64.986 18.0031L65.118 18.4017C65.6335 16.5634 65.8239 15.4437 65.8594 14.1463C70.1733 0.552214 68.6727 11.6478 68.6727 11.6478C68.0735 17.1855 66.9411 19.8997 65.5344 26.387Z" fill="#202020"/>
    <path d="M58.9512 7.87226C58.9639 7.9205 58.974 7.9662 58.9893 8.01191C58.9537 7.99413 58.9309 7.95859 58.9512 7.87226Z" fill="#202020"/>
    <path d="M43.9853 3.95018C43.9905 3.93976 43.9931 3.92934 43.9983 3.91892C43.9957 3.93976 43.9905 3.94757 43.9853 3.95018Z" fill="#202020"/>
    <path d="M58.1778 12.2927C58.1804 12.2927 58.183 12.2927 58.1856 12.2901C58.1987 12.298 58.2117 12.298 58.2222 12.3058L58.1778 12.2927Z" fill="#202020"/>
    <path d="M61.5486 8.67453C61.5106 8.74563 61.5359 8.82688 61.5664 8.87766C61.6147 8.90559 61.635 9.02238 61.6223 9.23059C61.5994 9.44133 61.5715 9.74094 61.2922 10.2843C61.1627 10.5027 61.0078 10.7439 60.7844 10.9648C60.4467 11.3939 59.9313 11.7544 59.4768 11.9448C59.0147 12.1454 58.5729 12.2394 58.1869 12.2901C57.9737 12.1733 57.7375 12.2114 57.4989 12.2419C57.2602 12.2724 57.0164 12.2952 56.8286 12.1708L56.6864 12.3485C56.5569 12.2597 56.4096 12.1987 56.2827 12.2901L56.2903 12.3409C56.1075 12.2038 55.8942 12.2698 55.8155 12.1987L55.818 12.2521L55.62 12.2165L55.6504 12.2927C55.3711 12.1327 55.0766 12.0997 54.81 12.1429L54.8506 11.9321C54.2717 12.1226 54.1118 11.663 53.5837 11.889V11.9423C53.0175 11.3151 52.5325 12.2063 51.9511 11.5868C52.0221 11.663 51.9003 11.6909 51.9003 11.7442C51.6083 11.6401 51.2934 11.5589 51.3544 11.145C51.1386 11.1171 51.1589 11.2466 51.1055 11.4015C51.136 11.2187 50.9608 11.1146 50.7932 11.0765L50.8593 11.1603L50.387 11.0155L50.5419 10.6905C50.2702 10.7439 50.4048 11.0968 50.1737 10.9698L50.227 10.688C49.8665 10.6804 49.5796 11.0689 49.1936 11.211C48.4675 11.1323 47.7616 10.8175 47.0685 10.5407C46.7206 10.4036 46.3778 10.2716 46.03 10.1853C45.6822 10.0939 45.3445 10.0583 44.9433 10.0634L44.8113 10.2487C44.6792 10.5407 44.5497 9.66476 44.3949 9.91359L44.2704 9.70539C44.1993 9.73586 44.0622 9.74094 44.1257 9.84758C43.948 9.78156 43.9632 9.72824 43.8845 9.58098C43.7931 9.60637 43.6992 9.62922 43.6001 9.64954C43.2066 9.50735 42.8867 9.1925 42.6429 8.81926C42.5185 8.63137 42.4271 8.42825 42.323 8.23274C42.2367 8.03216 42.1402 7.83158 42.0488 7.63099C41.8533 7.41517 41.7263 7.12318 41.6476 6.81342C41.5765 6.51127 41.5562 6.18882 41.5714 5.91206C41.5994 5.3357 41.7212 4.88629 41.7746 4.57906C41.8583 4.35563 41.8177 4.14996 41.706 4.01285C41.6019 3.87067 41.4318 3.78942 41.2541 3.72848C40.8935 3.60661 40.5203 3.57613 40.2537 3.15211C40.2105 3.18258 40.1851 3.06071 40.2004 3.0277C39.9515 2.93122 39.6824 2.85505 39.3929 2.78141C39.3929 2.78141 39.139 2.70778 38.8039 2.60114C38.4713 2.49197 38.0574 2.35231 37.7349 2.1695C37.415 1.98415 37.1814 1.74548 37.2601 1.39256C37.3465 1.04979 37.7349 0.552134 38.8572 0.0849497L38.842 0.0138567C39.4742 -0.0369242 39.8804 0.0367094 40.1775 0.491198C40.3679 0.102725 40.6701 0.605451 40.8554 0.534358V0.496274C40.9798 0.717171 41.1855 0.73241 41.4039 0.755261C41.6197 0.778113 41.8482 0.811114 41.9498 1.04217C41.9523 1.00662 42.0056 0.899983 41.9244 0.846663C42.163 1.03709 42.4474 1.35955 42.615 1.17928C42.9044 1.43318 43.2751 1.75564 43.5367 2.15681C43.8033 2.55036 43.9302 3.00485 43.8312 3.307L43.882 3.25114C43.8134 3.43649 43.821 3.51774 43.8566 3.6066C43.8921 3.69547 43.9378 3.7818 43.9023 3.93668C43.9378 3.9443 43.9581 3.96207 43.9708 3.95699C43.7753 4.28199 44.0521 4.73648 43.9505 4.9396H44.1156L44.1105 5.40425L44.0648 5.23921C43.6204 5.33061 44.3669 5.56421 44.1003 5.87651C44.141 6.006 43.9226 6.16342 43.7322 6.331C43.6357 6.41733 43.5494 6.50112 43.5037 6.58491C43.4554 6.66869 43.4529 6.7474 43.529 6.79819C43.3615 6.98354 43.8286 6.59506 43.7245 6.82358C43.9505 6.75756 43.8439 6.7017 44.0343 6.69154C44.0013 6.79056 44.0851 6.82865 44.1562 6.86674C44.2247 6.91244 44.3034 6.93022 44.2679 7.04447L44.4279 6.95815C44.3822 7.03686 44.3898 7.09271 44.4126 7.12826C44.4431 7.16127 44.4913 7.17397 44.5421 7.18158C44.6411 7.19682 44.7325 7.18666 44.6945 7.35678C44.7452 7.48627 44.862 7.39486 44.9484 7.31869C45.0423 7.24505 45.1032 7.18666 45.1464 7.40501C45.215 7.34408 45.2784 7.28315 45.3419 7.22221C45.4613 7.22729 45.3064 7.53705 45.4816 7.47357C45.5273 7.32377 45.6948 7.41771 45.6644 7.24759C45.8548 7.18412 45.9945 7.31615 46.1798 7.43549C46.3702 7.55482 46.5861 7.66146 46.8907 7.52689C46.9237 7.84935 47.2234 7.74017 47.2513 7.98138C47.297 7.85951 47.7692 8.08802 47.5509 7.73763C47.5331 7.70971 47.4874 7.70209 47.4773 7.75287L47.4874 7.57006C47.8556 7.30854 47.9648 7.88236 48.2669 7.89505C48.1679 7.93314 48.0587 7.89252 48.1069 8.02962L48.3786 8.06771L48.3558 7.90775L48.7722 7.91029L48.6757 8.08294C48.8915 8.03216 49.0261 7.73255 49.1911 8.04232C49.2597 8.20989 48.9524 8.25052 49.1479 8.35208C49.4374 8.28099 49.8665 8.17435 50.2093 8.17943C50.1382 8.38001 50.2296 8.39017 50.3159 8.45111L50.3591 8.27337C50.6688 8.59075 50.5622 7.90013 50.877 8.16165L50.8694 8.02962L50.8973 8.42317C51.1563 8.83704 51.1309 8.07787 51.4052 8.6263C51.2706 8.57298 51.2731 9.01477 51.461 8.96399L51.4458 8.78118C51.5346 8.8345 51.5575 8.91321 51.6261 8.88528C51.5829 8.78118 51.6362 8.6263 51.7708 8.67708L51.7098 8.44349L51.9257 8.80403C52.1593 8.64915 52.4512 8.93098 52.5706 8.69485C52.5706 8.69485 53.0276 8.63391 53.0962 8.91575C53.0276 8.73547 53.2815 8.70247 53.2358 8.49681C53.3247 8.70247 53.6471 8.90051 53.8071 8.71008L53.7842 8.68469C54.3047 8.53235 54.6145 9.06047 55.0893 8.84465C55.0512 9.0554 55.3001 8.95891 55.2188 9.22551C55.6708 9.5302 56.1176 8.73801 56.2141 9.58098C56.4122 9.63176 56.4528 9.39309 56.5493 9.34739L56.5061 9.30422C56.8565 9.37278 56.958 9.37278 57.1967 9.33215C57.3211 9.40071 57.3998 9.78664 57.6055 9.65461C57.5065 9.51496 57.6004 9.52766 57.6741 9.50988C57.6182 9.49719 57.5953 9.44387 57.6664 9.322C57.6918 9.36516 57.7198 9.39055 57.7452 9.40832C57.7426 9.39563 57.7452 9.38547 57.7375 9.37024C57.8645 9.38801 57.8619 9.44133 57.8112 9.47687C57.8213 9.49973 57.8239 9.5302 57.8188 9.5759C57.8543 9.4591 57.9407 9.44133 58.0016 9.40832C58.0676 9.38039 58.1108 9.34485 58.06 9.22044C58.2149 9.18743 58.3266 9.20012 58.4739 9.19759C58.6135 9.18997 58.7684 9.15696 58.8801 9.06302C58.776 8.97161 58.6364 8.96145 58.5653 8.98176C58.5932 8.95384 58.6262 8.92844 58.6617 8.90051L58.6846 8.87766C58.616 8.84466 58.5805 8.83958 58.5602 8.8472C58.5221 8.85735 58.5196 8.90052 58.4891 8.91067C58.4535 8.85227 58.4459 8.81673 58.4561 8.79134C58.4739 8.73294 58.9106 8.57806 58.8065 8.10833L58.9893 8.05502L58.9766 8.01439C59.0528 8.04486 59.2 7.97122 59.261 7.90013C59.1569 7.77318 58.9614 7.75033 59.0045 7.56244C59.0121 7.53197 59.0299 7.49642 59.0553 7.4558C59.0528 7.30345 59.1645 7.14095 59.3346 7.0267C59.4946 6.90228 59.7028 6.82612 59.8551 6.75248C59.7459 6.89213 59.8551 6.9226 59.9465 6.92006C60.0531 6.82358 60.0278 6.6433 60.1649 6.63315L60.0455 6.43256C60.0811 6.54428 60.2004 6.52396 60.3172 6.50873C60.434 6.4935 60.5533 6.46049 60.5965 6.49096C60.594 6.298 60.3324 6.46303 60.2334 6.37416C60.5051 6.23197 60.5762 6.20912 60.6422 6.18373C60.7082 6.16596 60.7818 6.11772 61.0484 6.04916C61.376 6.13041 61.0637 6.27514 61.2516 6.43002C61.4953 6.40717 61.7289 6.52651 61.96 6.35385L61.9092 6.56967C62.3256 6.67631 62.5363 6.64838 62.8029 6.44018C63.5291 6.86674 63.8363 7.28314 63.976 7.59291C64.1131 7.90521 64.0725 8.1388 63.9455 8.30384C63.8312 8.47395 63.651 8.57806 63.5088 8.64915C63.3615 8.7177 63.2523 8.75071 63.2523 8.75071C62.7979 8.94622 62.5262 8.92082 62.252 8.84211C62.1859 8.82434 62.1123 8.79895 62.0514 8.77864C62.0184 8.76848 61.9854 8.75833 61.9498 8.74564C61.9193 8.73802 61.8863 8.72786 61.8559 8.72024C61.7492 8.6847 61.6096 8.66946 61.5486 8.67453Z" fill="#202020"/>
    <path d="M47.6423 52.1305L47.5866 52.2014C47.6018 52.1634 47.6195 52.1356 47.6423 52.1305Z" fill="#202020"/>
    <path d="M40.8374 49.914C40.8374 49.9064 40.8349 49.9013 40.8374 49.8936C40.8374 49.9013 40.8374 49.9089 40.8374 49.914Z" fill="#202020"/>
    <path d="M47.071 54.7432C46.6876 54.7152 46.4616 55.0605 46.1569 54.7813C45.9741 54.7533 45.8218 54.601 45.6669 54.4969C45.6872 54.1744 45.446 54.4156 45.4358 54.1363L45.3419 54.2912C45.3368 54.1947 45.319 54.1262 45.2556 54.2049L45.2403 54.2531C45.2352 54.1109 45.154 54.1668 45.1515 54.0957L45.1362 54.1465L45.0854 54.1059L45.0727 54.1795C45.0321 54.017 44.9483 53.9789 44.8493 54.0145L44.9229 53.8139C44.6817 53.984 44.7604 53.5447 44.5218 53.7631L44.5065 53.8139C44.4938 53.2147 44.0876 54.0805 44.0571 53.5066C44.0597 53.5777 44.0114 53.6082 43.9987 53.659C43.9276 53.5727 43.8413 53.5092 43.9683 53.1106C43.8997 53.0953 43.8743 53.2172 43.8159 53.3695C43.8718 53.1944 43.8388 53.1029 43.7905 53.075L43.7931 53.1512L43.6636 53.0445L43.7981 52.7246C43.689 52.7957 43.6483 53.1207 43.6001 53.0166L43.689 52.7424C43.562 52.7627 43.3665 53.1563 43.1989 53.3238C42.7292 53.3035 42.4753 52.458 41.9193 52.816L41.838 53.0166C41.739 53.3162 41.8609 52.5367 41.7618 52.811L41.7568 52.6586C41.7263 52.7094 41.6806 52.7576 41.6857 52.8338C41.6374 52.8313 41.6527 52.783 41.6476 52.6815L41.5435 52.8541C41.3277 52.9481 41.2896 52.5393 41.0839 52.5621C40.7513 52.882 40.4466 52.4072 40.2663 52.1356C40.0607 51.5846 39.3294 52.6865 39.1339 52.0721C39.1111 52.1127 39.1085 52.0061 39.1187 51.9731L38.7937 51.9299C38.7937 51.9299 38.4052 51.8563 38.2453 51.5059C38.0853 51.1555 38.1462 50.5258 39.0755 49.4213L39.0857 49.3528C39.304 49.2385 39.4259 49.2334 39.4564 49.6016C39.5884 49.1979 39.6113 49.5991 39.69 49.4772L39.695 49.4416C39.7154 49.7869 39.9896 49.241 40.015 49.5508C40.02 49.5178 40.048 49.4035 40.0277 49.3908C40.0886 49.4645 40.1673 49.5838 40.2384 49.3477C40.4009 49.4619 40.6827 49.4213 40.6904 49.8327L40.7005 49.7641C40.6929 50.0383 40.7741 49.8276 40.8097 49.9774C40.8224 49.9469 40.8325 49.9342 40.8351 49.919C40.8325 50.1932 41.0306 50.018 41.0585 50.1424L41.1068 49.985L41.2388 50.0637L41.1753 50.0815C41.0687 50.5207 41.3607 49.8403 41.3835 50.1526C41.4952 50.1272 41.315 51.1098 41.4749 50.927C41.4622 51.1428 41.5308 50.5867 41.5562 50.7619C41.6247 50.536 41.5638 50.6121 41.6374 50.4369C41.6755 50.5639 41.8202 50.2414 41.8609 50.4192L41.9167 50.244C41.9345 50.5969 42.1985 50.0764 42.1808 50.4039C42.2519 50.5842 42.4144 49.9063 42.4321 50.2871L42.5515 50.0637C42.615 50.0409 42.5007 50.3658 42.5921 50.2668C42.6327 50.117 42.7013 50.1703 42.7114 50.018C42.912 49.825 42.8739 50.4293 43.1659 50.0891C43.1126 50.3912 43.2523 50.244 43.2142 50.4699C43.2573 50.3455 43.3919 50.503 43.3817 50.1983C43.3792 50.1729 43.364 50.1729 43.3513 50.2237L43.3919 50.0485C43.5899 49.7539 43.5138 50.2821 43.6255 50.2618C43.5798 50.31 43.5468 50.2821 43.5341 50.409L43.6306 50.4141L43.6585 50.2643L43.8185 50.2211L43.7448 50.3938C43.8388 50.3227 43.9581 50.0256 43.9505 50.3024C43.9378 50.4547 43.8134 50.5233 43.8642 50.602C43.9886 50.508 44.179 50.3658 44.306 50.3481C44.2323 50.5461 44.2628 50.5487 44.2806 50.5994L44.339 50.4268C44.3796 50.7061 44.5065 50.0561 44.5599 50.2871L44.5878 50.1627L44.5015 50.5385C44.4964 50.9194 44.6741 50.1957 44.6411 50.7035C44.6056 50.6578 44.4938 51.0819 44.5751 51.0235L44.6157 50.8508C44.636 50.8965 44.6233 50.9701 44.6563 50.9422C44.6665 50.8457 44.7249 50.6934 44.763 50.7391L44.8011 50.5182L44.7884 50.8559C44.9153 50.6985 44.9483 50.96 45.0524 50.7315C45.0524 50.7315 45.2352 50.6629 45.1845 50.9346C45.2073 50.7645 45.3089 50.7289 45.3495 50.5309C45.3267 50.7264 45.3901 50.9117 45.4968 50.7315V50.7061C45.7278 50.5639 45.6872 51.0717 45.9157 50.8813C45.8421 51.0819 45.9563 50.9981 45.8497 51.2494C45.9157 51.5541 46.3042 50.8203 46.0884 51.6354C46.1417 51.7014 46.2331 51.4754 46.2839 51.4475L46.2813 51.3992C46.388 51.5084 46.4235 51.5287 46.5251 51.544C46.5454 51.6379 46.4261 52.0086 46.5429 51.9502C46.5657 51.7928 46.5911 51.8334 46.6241 51.8436C46.6114 51.8131 46.6241 51.7573 46.7003 51.6735C46.6901 51.7217 46.6901 51.7522 46.6901 51.7776C46.6952 51.7649 46.7003 51.7572 46.7028 51.742C46.7384 51.8131 46.713 51.8537 46.6825 51.8664C46.6749 51.8893 46.6647 51.9172 46.6419 51.9553C46.7638 51.7852 46.7917 52.0213 46.8856 51.7725C47.0253 51.8867 47.0507 52.1863 47.1497 52.3311C47.2106 52.2067 47.2182 52.0822 47.1979 52.0162L47.2766 52.0975C47.3427 51.9121 47.2589 51.9705 47.2436 51.9223C47.462 51.6608 47.3706 52.3057 47.5991 52.0772L47.5737 52.2346L47.5915 52.2143C47.5636 52.293 47.5559 52.4072 47.5661 52.4402C47.6423 52.2854 47.6981 52.067 47.7591 52.1C47.8657 51.9629 47.8784 52.2295 47.9139 52.3412C47.8682 52.3565 47.8479 52.4504 47.8428 52.5113C47.8733 52.5291 47.9495 52.3742 47.9495 52.453L48.0307 52.2346C47.9444 52.4352 48.0358 52.4885 48.0155 52.5799C48.0917 52.425 48.0155 52.4225 48.051 52.2981C48.1755 52.3666 48.112 52.3311 48.2364 52.3996C48.2466 52.5901 48.1501 52.6002 48.112 52.8033C48.1577 52.8693 48.1628 53.042 48.2821 52.9354L48.1907 53.1207C48.2516 53.3137 48.3278 53.3162 48.4776 53.1486C48.6173 54.0932 48.4598 54.6467 48.2719 54.9641C48.0841 55.2814 47.8657 55.3652 47.8657 55.3652C47.3757 55.6623 47.4112 55.0352 47.071 54.7432Z" fill="#202020"/>
    <path d="M9.96606 25.4603L10.1773 25.5011C10.1646 25.4629 10.1086 25.44 9.96606 25.4603Z" fill="#202020"/>
    <path d="M35.0063 28.2407C35.0217 28.233 35.0397 28.2279 35.0525 28.2176C35.0217 28.2279 35.0115 28.2356 35.0063 28.2407Z" fill="#202020"/>
    <path d="M18.5454 25.4475C18.5404 25.45 18.5378 25.4525 18.5353 25.4525C18.5227 25.4702 18.505 25.4854 18.4949 25.5005L18.5454 25.4475Z" fill="#202020"/>
    <path d="M7.84611 28.4615C8.6383 28.4386 9.25782 28.3802 9.79864 28.3269C10.3395 28.2736 10.8041 28.2202 11.2637 28.1542C11.7207 28.0882 12.1701 28.007 12.6703 27.8876C12.9115 27.8318 13.1984 27.7505 13.5006 27.6591C13.8053 27.5728 14.1277 27.4509 14.4832 27.3163C15.872 26.8974 17.2888 26.2042 18.5355 25.4501C18.6472 25.2978 18.8072 25.1607 18.99 25.0337C19.1728 24.9068 19.3759 24.7671 19.5867 24.6377L19.9015 24.4371C20.0031 24.3634 20.1021 24.2873 20.196 24.2111C20.3839 24.0562 20.5566 23.8988 20.6784 23.7185L21.039 23.6474C21.2066 23.391 21.4249 23.1371 21.6966 22.9949L21.7195 23.0457C21.8312 22.8451 21.9886 22.675 22.1308 22.5277C22.2653 22.3703 22.3872 22.2383 22.4355 22.1342L22.4609 22.1824L22.796 21.7635C22.796 21.8041 22.7935 21.8422 22.7935 21.8802C22.9788 21.5273 23.187 21.1922 23.3927 20.8672C23.4892 20.6996 23.5907 20.5346 23.6923 20.3771C23.7964 20.2197 23.9005 20.0699 23.9894 19.9125L23.7735 19.8668C23.8269 19.7906 23.8776 19.7144 23.9259 19.6408C23.9487 19.6027 23.9716 19.5672 23.9944 19.5316L24.0274 19.4783L24.0681 19.4021C24.1798 19.2066 24.2687 18.9984 24.322 18.8004C24.4413 18.4043 24.5276 18.0539 24.6114 17.7162C24.6851 17.3785 24.6825 17.0662 24.68 16.7285C24.6724 16.3908 24.6495 16.0277 24.5429 15.5961L24.5962 15.5885C24.5759 15.5631 24.5581 15.5377 24.5403 15.5149C24.2026 15.1162 23.8675 14.7735 23.4942 14.5348C23.1261 14.286 22.7478 14.1412 22.3491 14.0498C21.948 13.966 21.5036 13.9356 20.9984 14.0752C20.5007 14.2073 19.9472 14.4764 19.447 14.9055C19.7035 14.6947 19.2794 14.8699 19.2769 14.8166L19.0814 14.9461L18.957 15.035C18.8783 15.0959 18.797 15.1543 18.7208 15.2127C18.6472 15.2736 18.5761 15.3346 18.5101 15.393C18.4466 15.4463 18.3654 15.5352 18.3044 15.6037C18.048 15.8906 17.9414 16.1369 18.0886 16.2943C17.6544 16.7361 17.6417 16.5736 17.4589 16.5279C17.5275 16.5863 17.497 16.7336 17.4132 16.9139C17.3294 17.0916 17.1949 17.3024 17.0857 17.5029L17.139 17.2846C17.0298 17.4775 16.9181 17.6705 16.8166 17.8635L16.5474 18.4525C16.6896 18.4271 16.8318 18.4043 16.974 18.384C16.7759 18.6531 16.6718 18.6531 16.5779 18.6531C16.4865 18.6557 16.4179 18.6633 16.3291 18.9781L16.5982 19.0797C16.4052 19.4885 16.1691 19.7855 15.938 20.0928C15.6968 20.3974 15.4582 20.7123 15.2627 21.1389C15.0925 21.8853 15.0138 22.6597 15.057 23.4976C15.1002 23.9394 15.123 24.3431 15.3211 24.9144C15.3439 24.9804 15.3693 25.0541 15.3922 25.1125L15.4531 25.2419C15.4937 25.3283 15.5318 25.4171 15.5775 25.5009C15.6613 25.6736 15.7502 25.8437 15.8416 26.0113C16.2097 26.6841 16.621 27.3341 17.1314 27.9587C17.3904 28.271 17.6722 28.5783 18.0201 28.8728C18.3527 29.1597 18.8503 29.472 19.3531 29.604L19.6146 29.6726L19.8583 29.7386C20.0208 29.7843 20.1808 29.83 20.3382 29.8808C20.6556 29.9747 20.9654 30.0966 21.2726 30.1956L21.3741 30.4317C21.3843 30.7542 22.3441 30.1194 22.4177 30.4267L22.8138 30.3454C22.9103 30.4216 23.1261 30.5028 22.928 30.5511C23.2733 30.6044 23.2886 30.5536 23.5501 30.4876L23.9005 30.7263C24.5784 30.8939 25.2208 30.8786 25.8683 30.8583C26.5157 30.8507 27.1682 30.7872 27.8843 30.8532C28.3134 30.9751 28.8389 31.0259 29.4128 31.0487C29.6997 31.0589 30.0018 31.0614 30.3065 31.0564C30.6112 31.0437 30.9235 31.0259 31.2358 31.0005C31.5481 30.9776 31.8629 30.9472 32.1702 30.9167C32.4774 30.8812 32.7795 30.838 33.0715 30.7974C33.6555 30.7136 34.1989 30.6323 34.6533 30.5486C37.2025 29.9417 40.2723 30.9599 42.8469 30.2312C42.9357 30.2693 43.1465 30.155 43.1439 30.1169L45.5357 29.9976C45.5357 29.9976 46.2593 29.9544 47.2038 29.8706C48.1484 29.7894 49.3163 29.6548 50.205 29.4745C51.0937 29.2892 51.7107 29.0327 51.5456 28.6824C51.3806 28.337 50.4361 27.8775 48.1788 27.3417L48.2347 27.2706C46.9042 27.1716 46.0689 27.1894 45.1853 27.5956C45.0127 27.1818 44.1011 27.6236 43.7837 27.5093L43.8117 27.4738C43.0322 27.8572 42.1385 27.3214 41.3894 27.6693C41.4174 27.6337 41.425 27.5169 41.6027 27.4966C41.0441 27.5906 40.2824 27.7429 40.2215 27.4992C38.8834 27.6642 37.0121 27.6794 36.1819 28.1288L36.2352 28.0577C35.7629 28.3548 35.608 28.1339 35.0698 28.3015C35.0393 28.271 34.9987 28.2558 35.0037 28.2431C34.4858 28.5402 33.4575 28.3675 33.0334 28.4919L32.9979 28.3294C32.6475 28.3548 32.2946 28.3878 31.9442 28.4081C32.0762 28.4183 32.2082 28.4259 32.3377 28.431C32.2133 28.8931 31.5329 28.1669 30.7788 28.4767C30.4208 28.4589 30.0628 28.695 29.6971 28.9032C29.3315 29.114 28.9557 29.307 28.5825 29.1952C28.2219 29.4034 28.9024 28.855 28.3667 29.0124C28.354 28.7788 28.618 28.8702 28.4835 28.6798C27.963 28.7738 27.643 28.4107 27.0007 28.5452L26.9829 28.3624C26.5589 28.5224 26.1729 28.4158 25.8251 28.3345C25.4747 28.2456 25.1624 28.1619 24.8729 28.2964C24.0097 28.3472 24.3702 27.6896 23.4536 27.9435C23.3521 27.847 23.2505 27.7556 23.1515 27.6515C22.7909 27.5499 22.8417 27.9079 22.4507 27.7201C22.5015 27.5702 21.9556 27.5119 22.2196 27.4052C22.0546 27.3316 21.8845 27.2859 21.7093 27.2579C21.5341 27.2275 21.3564 27.1996 21.171 27.1843C20.9857 27.1665 20.7952 27.1513 20.6023 27.1335C20.5058 27.1234 20.4068 27.1107 20.3077 27.0929L20.1579 27.065L20.0285 27.037C19.9929 27.0193 19.9574 26.9964 19.9345 26.9558C19.9142 26.9177 19.8964 26.8669 19.8609 26.7705C19.7872 26.8111 19.7187 26.8136 19.6501 26.7882C19.5841 26.7705 19.5206 26.7222 19.4597 26.6689C19.3378 26.5673 19.2236 26.4429 19.0839 26.4429C19.1271 26.3947 18.9773 26.1763 18.891 25.9986C18.8072 25.8183 18.7894 25.7015 19.0687 25.8843C19.1169 25.9148 19.1626 25.9884 19.1169 26.0138L19.3048 25.9707C19.282 25.6431 19.1093 25.4349 18.9011 25.2267C18.6929 25.021 18.4619 24.8078 18.3552 24.5031C18.3755 24.7011 18.4999 24.9246 18.3146 24.823C18.2359 24.6376 18.1648 24.4498 18.0962 24.2619L18.2841 24.3203L18.2232 24.107C18.2156 24.0765 18.1978 24.0257 18.1978 24.0105C18.2003 23.9978 18.2029 23.9877 18.2054 23.9775C18.208 23.9673 18.208 23.9572 18.208 23.947V23.9318L18.2105 23.8962V23.7566C18.1521 23.7896 18.0962 23.8226 18.0378 23.8607C18.0556 23.7211 18.1648 23.5713 18.2105 23.4545C18.2638 23.3275 18.279 23.1904 18.1521 22.9644C18.015 22.7486 17.8804 23.3427 17.8449 22.9035C17.9972 22.35 18.3248 21.5324 18.5812 20.8697C18.3603 20.8773 18.4187 20.6894 18.439 20.4863L18.6218 20.5219C18.6371 19.7246 19.0839 20.4 19.1728 19.6738L19.2617 19.783C19.1703 19.6738 19.0865 19.5672 19.0001 19.4529C18.9925 19.2701 19.0204 19.166 19.0636 19.1051C19.1119 19.0492 19.1728 19.034 19.2312 19.0162C19.2896 18.9984 19.3429 18.9756 19.381 18.907C19.3988 18.8715 19.4115 18.8232 19.4191 18.7598C19.4292 18.7014 19.4369 18.6252 19.4369 18.5211C19.3023 18.7445 19.0331 18.3865 19.3074 18.1529L19.3911 18.3332C19.4292 18.2443 19.4495 18.1834 19.4724 18.1377C19.4952 18.0895 19.5181 18.0514 19.5714 18.0209C19.5689 18.1631 19.7212 18.2342 19.8634 18.0438C19.8736 18.1301 19.8913 18.2291 19.9091 18.3154C19.9243 18.1199 19.9675 17.9803 20.0132 17.7924C20.0361 17.7873 20.0589 17.7822 20.0818 17.7746C20.1122 17.7645 20.1402 17.7543 20.1706 17.7416C20.229 17.7162 20.2874 17.6857 20.3458 17.6527C20.4042 17.6223 20.4601 17.5867 20.5159 17.5512L20.5972 17.5004L20.6226 17.4852L20.6327 17.4775C20.6962 17.4318 20.7724 17.3988 20.8156 17.5182C20.8156 17.5182 20.874 17.5232 20.9298 17.4979C20.9882 17.4725 21.0618 17.4115 21.1634 17.2389C21.0948 17.3481 21.0999 17.4166 21.0872 17.4928C21.0771 17.5664 21.0491 17.6527 20.9857 17.7771C21.0466 17.6578 21.1532 17.5461 21.237 17.5309C21.3208 17.5105 21.3488 17.5918 21.2421 17.7035L21.2116 17.7162C21.2015 17.7391 21.1913 17.7594 21.1837 17.7797C21.138 17.8762 21.2167 17.8787 21.2573 17.9549C21.2777 17.9904 21.2878 18.0361 21.2751 18.0818C21.27 18.1021 21.2523 18.125 21.2193 18.1656C21.1634 18.2519 21.1025 18.3357 21.0314 18.4145C21.1304 18.4424 21.1152 18.5592 21.0847 18.6607C21.0593 18.7623 21.0441 18.8639 21.1939 18.8791C21.0644 19.3793 20.6632 19.6713 20.3839 19.9201C20.0767 20.1562 19.9066 20.3822 20.0589 20.8037C19.7441 21.1693 19.5232 21.0576 19.3023 21.1769L19.3607 21.0703C19.0458 21.3801 18.8402 21.5832 18.6269 21.7381C18.4212 21.898 18.2359 22.0377 17.9439 22.2078C17.7078 22.4566 17.8703 22.8273 17.2761 23.0533C17.3751 22.8197 17.1695 22.9695 16.9689 23.0838C17.0857 22.9873 17.0984 22.9213 16.7836 22.9695C16.7683 23.0304 16.7226 23.0863 16.6794 23.1371C16.6718 23.1269 16.6566 23.1244 16.6541 23.1066C16.3367 23.33 16.4154 23.3427 16.5855 23.2818C16.588 23.3072 16.616 23.3275 16.6845 23.3402C16.2427 23.3529 15.6714 23.8379 15.5166 23.6144C14.4756 24.1324 13.7621 24.663 12.8353 25.0541C12.6881 24.95 12.881 24.7773 13.1349 24.6377C12.9191 24.7291 12.6982 24.8027 12.4773 24.8839C12.4291 24.691 12.8328 24.6681 13.0258 24.564C12.1625 24.4904 11.4262 25.3537 10.3979 25.308L10.2354 25.5085L10.1719 25.4984C10.1947 25.5796 10.0043 25.7371 9.86719 25.7955C9.69454 25.6583 9.79102 25.407 9.32892 25.5136C8.93283 25.4248 8.3133 25.7777 7.84865 25.8996C8.1051 25.9072 8.034 26.0062 7.92482 26.0798C7.69377 26.1001 7.55412 25.9402 7.38401 26.0138L7.35862 25.7828C7.45002 26.0037 6.77971 26.0214 6.69085 26.0925C6.63499 26.0011 6.72386 25.9707 6.83049 25.9478C6.93967 25.9224 7.0717 25.897 7.09963 25.8335C6.88128 25.8361 6.74925 25.8259 6.6553 25.8209C6.56136 25.8183 6.50804 25.8107 6.45726 25.8056C6.35315 25.7929 6.24398 25.7929 5.84281 25.7066C5.36801 25.7599 5.86566 25.9402 5.6016 26.0798C5.19535 26.0087 4.72563 25.9833 4.38793 25.5974C4.39301 25.6812 4.40063 25.7675 4.41079 25.8564C3.6186 25.5466 3.25298 25.0998 3.07779 24.5361C2.44303 24.0359 1.986 23.5306 1.62038 23.1498C1.44518 22.9543 1.28522 22.7867 1.14557 22.647C1.011 22.5049 0.88913 22.3931 0.78249 22.3068C0.35593 21.9615 0.150268 22.0732 0.0487062 22.355C-0.0376213 22.6597 -0.00207546 23.1777 0.0994863 23.6271C0.198509 24.074 0.338157 24.4447 0.338157 24.4447C0.843427 25.9478 1.81842 27.0726 3.13111 27.7683C3.78618 28.1136 4.52504 28.3447 5.31468 28.4564C6.10941 28.5579 6.95237 28.5605 7.84611 28.4615Z" fill="#202020"/>
    <path d="M69.5259 7.9689L69.4468 7.91787C69.4876 7.90767 69.5208 7.91787 69.5259 7.9689Z" fill="#202020"/>
    <path d="M60.6725 6.74499C60.6751 6.75262 60.6776 6.75771 60.6802 6.76534C60.6725 6.75771 60.6725 6.75008 60.6725 6.74499Z" fill="#202020"/>
    <path d="M66.342 8.58063C66.337 8.58826 66.3319 8.59335 66.3268 8.60098L66.342 8.58063Z" fill="#202020"/>
    <path d="M66.6367 8.76841C66.6011 8.69478 66.4716 8.68209 66.3726 8.69732C66.2736 8.70748 66.2025 8.75572 66.299 8.68716C66.2914 8.6897 66.2914 8.68716 66.2888 8.68462C66.2914 8.67447 66.3396 8.61861 66.3421 8.58052C66.4488 8.44341 66.4259 8.43579 66.4056 8.43833C66.3828 8.43833 66.365 8.44595 66.4031 8.32154C66.3726 8.37486 66.3421 8.43071 66.3142 8.48403C66.3421 8.39771 66.3447 8.33678 66.3041 8.42564L66.2888 8.47388C66.3167 8.34439 66.238 8.40786 66.2406 8.34185L66.2304 8.39263L66.2101 8.3774L66.1568 8.35455L66.1619 8.43072C66.0273 8.2606 65.8623 8.21744 65.7023 8.25299L65.7556 8.04479C65.3951 8.21744 65.3646 7.76041 65.0269 7.98131L65.0218 8.03208C64.7705 7.40748 64.3795 8.29869 64.1129 7.69947C64.1459 7.7731 64.0722 7.80358 64.0646 7.85436C63.9072 7.76041 63.7295 7.69439 63.8082 7.28053C63.6838 7.26276 63.6812 7.38971 63.6355 7.54459C63.6711 7.36432 63.5797 7.26784 63.4832 7.23737L63.5136 7.31608L63.247 7.19928L63.3689 6.86921C63.2013 6.93776 63.2496 7.278 63.1252 7.16628L63.1836 6.88444C62.9677 6.89967 62.7646 7.30338 62.5285 7.4735C61.6855 7.43288 60.9467 6.54167 60.0859 6.88698L60.0098 7.09264C59.9336 7.39987 59.8904 6.59245 59.8041 6.87428L59.7432 6.71433C59.7076 6.76511 59.6441 6.81335 59.6746 6.89206C59.5908 6.88698 59.5984 6.8362 59.5578 6.7321L59.4309 6.90729C59.2531 6.95045 59.116 6.86412 58.9764 6.77018C58.9078 6.72194 58.8367 6.6737 58.7631 6.63561C58.7453 6.62545 58.725 6.61784 58.7072 6.61023H58.7047C59.7533 1.26808 58.9941 5.12996 59.2303 3.93661L59.2328 3.93915L59.2404 3.94169L59.2557 3.94676L59.2861 3.95692C59.3268 3.96708 59.3674 3.97216 59.4131 3.97216C59.9006 3.65985 60.5988 4.17274 61 4.46981C61.5332 5.05633 62.5006 3.96454 63.0338 4.61962C63.0642 4.57899 63.0972 4.68816 63.0896 4.72371L63.6838 4.7948C63.6838 4.7948 66.5402 5.23152 63.8843 7.37702L63.8869 7.44811C63.534 7.54967 63.3258 7.54713 63.1734 7.16374C63.0566 7.57252 62.9017 7.15612 62.8002 7.27545V7.311C62.6681 6.95299 62.3457 7.49889 62.2136 7.17389C62.2136 7.20944 62.1959 7.3237 62.239 7.33893C62.1121 7.26022 61.942 7.13073 61.8861 7.3694C61.5713 7.24245 61.0914 7.2653 60.9594 6.8362V6.90729C60.8908 6.62292 60.8121 6.83874 60.7055 6.67878C60.6928 6.70925 60.6801 6.72448 60.6775 6.73718C60.5988 6.45281 60.3043 6.62292 60.223 6.49089L60.185 6.65085L59.9336 6.56198L60.0377 6.54675C60.091 6.09734 59.7863 6.78542 59.6543 6.46296C59.4664 6.48327 59.4791 5.47273 59.2531 5.653C59.2074 5.42957 59.2633 6.00593 59.1643 5.82058C59.1135 6.05163 59.1973 5.978 59.1262 6.15574C59.0729 6.08972 59.0094 6.13796 58.9434 6.17859C58.9104 6.1989 58.8773 6.21921 58.8418 6.22175C58.824 6.22175 58.8088 6.21921 58.791 6.21159L58.7885 6.20905H58.7859C58.7072 6.61276 59.4766 2.6874 59.1516 4.35047L59.1566 4.35555L59.1693 4.36571C59.177 4.37333 59.1846 4.38348 59.1922 4.39618L59.2328 4.21844C59.375 4.5866 59.667 4.05848 59.7432 4.39871C59.926 4.58914 59.9894 3.89344 60.1418 4.28699L60.2764 4.06102C60.3779 4.04071 60.2865 4.37333 60.4135 4.2743C60.4363 4.11942 60.5709 4.17782 60.5379 4.0204C60.8223 3.82743 60.9517 4.45458 61.3453 4.11181C61.3555 4.42411 61.5459 4.27684 61.5535 4.51043C61.5865 4.38348 61.8734 4.55106 61.7515 4.23368C61.7414 4.20829 61.7135 4.20575 61.7058 4.25653L61.7185 4.07626C61.9623 3.77665 62.0054 4.32255 62.1933 4.30731C62.1299 4.35555 62.0638 4.32508 62.0867 4.45711L62.2543 4.46473L62.2492 4.30985L62.5107 4.27176L62.4422 4.4495C62.5793 4.3784 62.6834 4.07372 62.7672 4.36063C62.8002 4.51805 62.6047 4.5866 62.7189 4.66785C62.9043 4.57391 63.1785 4.43172 63.3943 4.41649C63.3334 4.61961 63.3918 4.62215 63.44 4.67547L63.4806 4.49774C63.6482 4.78973 63.6381 4.11688 63.8132 4.35809L63.8183 4.2286L63.8006 4.61453C63.925 5.00809 63.9783 4.26161 64.0976 4.78973C64.0189 4.74149 63.9808 5.1782 64.1002 5.1198L64.1078 4.94207C64.1586 4.99031 64.1636 5.06649 64.2093 5.03856C64.1941 4.937 64.2398 4.78211 64.3211 4.82781L64.3058 4.5993L64.4048 4.94969C64.5648 4.78719 64.7171 5.06141 64.8162 4.82528C64.8162 4.82528 65.1082 4.75672 65.1158 5.03856C65.0955 4.86082 65.2554 4.82781 65.2503 4.62215C65.2834 4.82527 65.456 5.01825 65.5779 4.8329L65.5677 4.8075C65.9105 4.66278 66.0298 5.1909 66.3523 4.99539C66.299 5.20105 66.464 5.11726 66.3777 5.37625C66.4919 5.53621 66.6468 5.42449 66.7662 5.38133C66.7915 5.36863 66.8322 5.36355 66.8703 5.36863C66.9058 5.37371 66.9388 5.3864 66.9642 5.41433C67.015 5.47019 67.0404 5.58445 67.0175 5.79265C67.1876 5.87136 67.3095 5.64792 67.4339 5.63015L67.4009 5.57938C67.7716 5.72156 67.8732 5.74949 68.1753 5.79011C68.2744 5.89421 68.0357 6.2446 68.3251 6.20398C68.3632 6.05417 68.4368 6.09734 68.5283 6.11511C68.4902 6.0821 68.5105 6.02878 68.7161 5.96277C68.6958 6.00847 68.6984 6.03894 68.7034 6.06433C68.7136 6.05417 68.7263 6.04656 68.739 6.03132C68.8507 6.11004 68.7796 6.14304 68.6933 6.14812C68.6781 6.16843 68.6451 6.19382 68.5892 6.22683C68.9117 6.08464 68.998 6.32078 69.2722 6.10242C69.4474 6.16335 69.554 6.24968 69.6251 6.33601L69.6048 6.4198C69.5997 6.43503 69.5997 6.44518 69.5947 6.46296L69.5693 6.51628C69.5363 6.58483 69.5032 6.65339 69.4702 6.7194C69.4068 6.85143 69.3484 6.97331 69.3027 7.08503C69.4449 7.04694 69.5845 6.89713 69.6556 6.75495L69.5718 7.0444C69.7825 6.93522 69.7115 6.82858 69.7648 6.72448C69.9171 6.79049 69.8105 7.01647 69.7013 7.22467C69.5921 7.43795 69.4779 7.63092 69.6073 7.76803L69.4322 7.8899L69.455 7.90513C69.3687 7.92798 69.2366 8.03462 69.2011 8.08794C69.3738 8.0981 69.62 7.994 69.5769 8.18443C69.7241 8.31138 69.4118 8.62622 69.2747 8.80142C69.2671 8.69985 69.1605 8.7354 69.0919 8.77349C69.0691 8.85474 69.229 8.91567 69.1376 8.97661L69.3687 9.00454C69.1554 8.95376 69.0741 9.21274 68.97 9.22544C69.1275 9.30415 69.1529 9.11626 69.2874 9.10865C69.1706 9.46919 69.2265 9.29654 69.1046 9.64185C68.8939 9.72817 68.9015 9.55298 68.6882 9.55805C68.6095 9.66469 68.4165 9.72563 68.5029 9.90337L68.3226 9.79418C68.0966 9.95668 68.0738 10.0862 68.2109 10.3045C67.665 10.5457 67.2486 10.5914 66.9388 10.561C66.629 10.5305 66.4208 10.4239 66.2812 10.2918C65.9994 10.0405 65.9664 9.73325 65.9664 9.73325C65.8623 9.39809 65.9638 9.23052 66.1416 9.06294C66.2279 8.98677 66.3396 8.88267 66.4386 8.80904C66.5097 8.82427 66.5859 8.8065 66.6367 8.76841Z" fill="#202020"/>
</svg>
