<svg width="79" height="79" viewBox="0 0 79 79" fill="none" xmlns="http://www.w3.org/2000/svg">
<path d="M71.0336 15.468C63.8933 6.08781 52.7651 0.241915 41.059 0.0126639C31.889 -0.168826 25.5511 2.57741 21.9691 4.78872C26.7643 2.01383 33.7039 0.437733 39.7838 0.518926C55.4158 0.719521 72.2037 11.3367 74.6968 30.4791C77.5576 52.4538 62.2169 70.7891 40.6387 70.8464C16.8969 70.9037 2.45412 49.9273 6.22721 31.0905C6.41348 30.1496 6.32273 29.2326 6.63795 28.3442C6.81944 25.0297 8.07077 19.8381 10.7788 14.5367C8.04689 15.9456 4.56514 20.4112 2.84576 24.5473C0.366986 30.5078 -0.507033 37.6385 0.281017 44.4205C0.33833 44.9315 0.395642 45.4378 0.462507 45.944C3.64336 64.5993 19.882 78.8033 39.4447 78.8033C61.2856 78.8033 78.9952 61.0985 78.9952 39.2528C78.9905 30.3263 76.0293 22.0876 71.0336 15.468Z" fill="url(#paint0_radial_389_2474)"/>
<g opacity="0.67">
<path opacity="0.67" d="M71.0336 15.468C63.8933 6.08781 52.7651 0.241915 41.059 0.0126639C31.889 -0.168826 25.5511 2.57741 21.9691 4.78872C26.7643 2.01383 33.7039 0.437733 39.7838 0.518926C55.4158 0.719521 72.2037 11.3367 74.6968 30.4791C77.5576 52.4538 62.2169 70.7891 40.6387 70.8464C16.8969 70.9037 2.45412 49.9273 6.22721 31.0905C6.41348 30.1496 6.32273 29.2326 6.63795 28.3442C6.81944 25.0297 8.07077 19.8381 10.7788 14.5367C8.04689 15.9456 4.56514 20.4112 2.84576 24.5473C0.366986 30.5078 -0.507033 37.6385 0.281017 44.4205C0.33833 44.9315 0.395642 45.4378 0.462507 45.944C3.64336 64.5993 19.882 78.8033 39.4447 78.8033C61.2856 78.8033 78.9952 61.0985 78.9952 39.2528C78.9905 30.3263 76.0293 22.0876 71.0336 15.468Z" fill="url(#paint1_radial_389_2474)"/>
</g>
<path d="M71.0336 15.468C63.8933 6.08781 52.7651 0.241915 41.059 0.0126639C31.889 -0.168826 25.5511 2.57741 21.9691 4.78872C26.7643 2.01383 33.7039 0.437733 39.7838 0.518926C55.4158 0.719521 72.2037 11.3367 74.6968 30.4791C77.5576 52.4538 62.2169 70.7891 40.6387 70.8464C16.8969 70.9037 2.45412 49.9273 6.22721 31.0905C6.41348 30.1496 6.32273 29.2326 6.63795 28.3442C6.81944 25.0297 8.07077 19.8381 10.7788 14.5367C8.04689 15.9456 4.56514 20.4112 2.84576 24.5473C0.366986 30.5078 -0.507033 37.6385 0.281017 44.4205C0.33833 44.9315 0.395642 45.4378 0.462507 45.944C3.64336 64.5993 19.882 78.8033 39.4447 78.8033C61.2856 78.8033 78.9952 61.0985 78.9952 39.2528C78.9905 30.3263 76.0293 22.0876 71.0336 15.468Z" fill="url(#paint2_radial_389_2474)"/>
<path d="M71.0336 15.468C63.8933 6.08781 52.7651 0.241915 41.059 0.0126639C31.889 -0.168826 25.5511 2.57741 21.9691 4.78872C26.7643 2.01383 33.7039 0.437733 39.7838 0.518926C55.4158 0.719521 72.2037 11.3367 74.6968 30.4791C77.5576 52.4538 62.2169 70.7891 40.6387 70.8464C16.8969 70.9037 2.45412 49.9273 6.22721 31.0905C6.41348 30.1496 6.32273 29.2326 6.63795 28.3442C6.81944 25.0297 8.07077 19.8381 10.7788 14.5367C8.04689 15.9456 4.56514 20.4112 2.84576 24.5473C0.366986 30.5078 -0.507033 37.6385 0.281017 44.4205C0.33833 44.9315 0.395642 45.4378 0.462507 45.944C3.64336 64.5993 19.882 78.8033 39.4447 78.8033C61.2856 78.8033 78.9952 61.0985 78.9952 39.2528C78.9905 30.3263 76.0293 22.0876 71.0336 15.468Z" fill="url(#paint3_radial_389_2474)"/>
<path d="M71.0336 15.468C63.8933 6.08781 52.7651 0.241915 41.059 0.0126639C31.889 -0.168826 25.5511 2.57741 21.9691 4.78872C26.7643 2.01383 33.7039 0.437733 39.7838 0.518926C55.4158 0.719521 72.2037 11.3367 74.6968 30.4791C77.5576 52.4538 62.2169 70.7891 40.6387 70.8464C16.8969 70.9037 2.45412 49.9273 6.22721 31.0905C6.41348 30.1496 6.32273 29.2326 6.63795 28.3442C6.81944 25.0297 8.07077 19.8381 10.7788 14.5367C8.04689 15.9456 4.56514 20.4112 2.84576 24.5473C0.366986 30.5078 -0.507033 37.6385 0.281017 44.4205C0.33833 44.9315 0.395642 45.4378 0.462507 45.944C3.64336 64.5993 19.882 78.8033 39.4447 78.8033C61.2856 78.8033 78.9952 61.0985 78.9952 39.2528C78.9905 30.3263 76.0293 22.0876 71.0336 15.468Z" fill="url(#paint4_radial_389_2474)"/>
<path d="M74.6968 30.4744C75.012 32.9006 75.1075 35.2886 74.9929 37.6146C76.3016 37.4188 77.615 37.2468 78.9284 37.094C78.489 28.9986 75.6234 21.5527 71.0336 15.468C63.8934 6.08781 52.7651 0.241915 41.059 0.0126639C31.889 -0.168826 25.5512 2.57741 21.9691 4.78872C26.7643 2.01383 33.7039 0.437733 39.7838 0.518926C55.4158 0.714745 72.2037 11.3319 74.6968 30.4744Z" fill="url(#paint5_linear_389_2474)"/>
<path d="M75.6568 29.3807C73.4359 9.37855 55.5496 0.38523 39.7838 0.514184C33.7087 0.561944 26.769 2.00909 21.9691 4.78398C19.7291 6.16426 18.5638 7.3344 18.4539 7.44902C18.5829 7.34395 18.9602 7.0335 19.5906 6.59888C19.6097 6.58455 19.6336 6.57023 19.6527 6.5559C19.6718 6.54157 19.6909 6.53202 19.71 6.51769C21.9978 4.94159 24.5768 3.79534 27.304 2.99773C31.4735 1.77984 35.9821 1.3691 40.3235 1.47895C58.1573 2.5058 70.7422 17.2734 71.1816 32.9914C71.5446 46.0014 60.8701 56.375 48.567 56.9768C39.6214 57.4114 31.1917 53.0938 27.0699 44.4539C26.1529 42.5292 25.4795 40.5758 25.1309 38.2164C23.1822 25.0631 32.0323 13.8489 40.1516 11.074C35.7719 7.25798 24.8013 7.51589 16.6342 13.5098C10.7549 17.8274 6.93885 24.3945 5.67319 32.2272C4.70843 38.2021 5.61588 44.4157 7.98481 49.9607C10.3967 55.6156 14.3179 60.597 19.2468 64.2698C24.6007 68.253 31.0484 70.5742 37.6919 71.0804C38.671 71.1569 39.6549 71.1903 40.6387 71.1903C66.7685 71.1903 78.1021 51.4031 75.6568 29.3807Z" fill="url(#paint6_radial_389_2474)"/>
<path d="M75.6568 29.3807C73.4359 9.37855 55.5496 0.38523 39.7838 0.514184C33.7087 0.561944 26.769 2.00909 21.9691 4.78398C19.7291 6.16426 18.5638 7.3344 18.4539 7.44902C18.5829 7.34395 18.9602 7.0335 19.5906 6.59888C19.6097 6.58455 19.6336 6.57023 19.6527 6.5559C19.6718 6.54157 19.6909 6.53202 19.71 6.51769C21.9978 4.94159 24.5768 3.79534 27.304 2.99773C31.4735 1.77984 35.9821 1.3691 40.3235 1.47895C58.1573 2.5058 70.7422 17.2734 71.1816 32.9914C71.5446 46.0014 60.8701 56.375 48.567 56.9768C39.6214 57.4114 31.1917 53.0938 27.0699 44.4539C26.1529 42.5292 25.4795 40.5758 25.1309 38.2164C23.1822 25.0631 32.0323 13.8489 40.1516 11.074C35.7719 7.25798 24.8013 7.51589 16.6342 13.5098C10.7549 17.8274 6.93885 24.3945 5.67319 32.2272C4.70843 38.2021 5.61588 44.4157 7.98481 49.9607C10.3967 55.6156 14.3179 60.597 19.2468 64.2698C24.6007 68.253 31.0484 70.5742 37.6919 71.0804C38.671 71.1569 39.6549 71.1903 40.6387 71.1903C66.7685 71.1903 78.1021 51.4031 75.6568 29.3807Z" fill="url(#paint7_radial_389_2474)"/>
<path opacity="0.53" d="M75.6568 29.3807C73.4359 9.37855 55.5496 0.38523 39.7838 0.514184C33.7087 0.561944 26.769 2.00909 21.9691 4.78398C19.7291 6.16426 18.5638 7.3344 18.4539 7.44902C18.5829 7.34395 18.9602 7.0335 19.5906 6.59888C19.6097 6.58455 19.6336 6.57023 19.6527 6.5559C19.6718 6.54157 19.6909 6.53202 19.71 6.51769C21.9978 4.94159 24.5768 3.79534 27.304 2.99773C31.4735 1.77984 35.9821 1.3691 40.3235 1.47895C58.1573 2.5058 70.7422 17.2734 71.1816 32.9914C71.5446 46.0014 60.8701 56.375 48.567 56.9768C39.6214 57.4114 31.1917 53.0938 27.0699 44.4539C26.1529 42.5292 25.4795 40.5758 25.1309 38.2164C23.1822 25.0631 32.0323 13.8489 40.1516 11.074C35.7719 7.25798 24.8013 7.51589 16.6342 13.5098C10.7549 17.8274 6.93885 24.3945 5.67319 32.2272C4.70843 38.2021 5.61588 44.4157 7.98481 49.9607C10.3967 55.6156 14.3179 60.597 19.2468 64.2698C24.6007 68.253 31.0484 70.5742 37.6919 71.0804C38.671 71.1569 39.6549 71.1903 40.6387 71.1903C66.7685 71.1903 78.1021 51.4031 75.6568 29.3807Z" fill="url(#paint8_radial_389_2474)"/>
<path opacity="0.53" d="M75.6568 29.3807C73.4359 9.37855 55.5496 0.38523 39.7838 0.514184C33.7087 0.561944 26.769 2.00909 21.9691 4.78398C19.7291 6.16426 18.5638 7.3344 18.4539 7.44902C18.5829 7.34395 18.9602 7.0335 19.5906 6.59888C19.6097 6.58455 19.6336 6.57023 19.6527 6.5559C19.6718 6.54157 19.6909 6.53202 19.71 6.51769C21.9978 4.94159 24.5768 3.79534 27.304 2.99773C31.4735 1.77984 35.9821 1.3691 40.3235 1.47895C58.1573 2.5058 70.7422 17.2734 71.1816 32.9914C71.5446 46.0014 60.8701 56.375 48.567 56.9768C39.6214 57.4114 31.1917 53.0938 27.0699 44.4539C26.1529 42.5292 25.4795 40.5758 25.1309 38.2164C23.1822 25.0631 32.0323 13.8489 40.1516 11.074C35.7719 7.25798 24.8013 7.51589 16.6342 13.5098C10.7549 17.8274 6.93885 24.3945 5.67319 32.2272C4.70843 38.2021 5.61588 44.4157 7.98481 49.9607C10.3967 55.6156 14.3179 60.597 19.2468 64.2698C24.6007 68.253 31.0484 70.5742 37.6919 71.0804C38.671 71.1569 39.6549 71.1903 40.6387 71.1903C66.7685 71.1903 78.1021 51.4031 75.6568 29.3807Z" fill="url(#paint9_radial_389_2474)"/>
<path d="M48.567 56.9767C65.4551 55.9498 72.6813 42.0085 73.1302 32.1077C73.8371 16.6476 64.6432 -0.0208163 40.3235 1.48364C35.9868 1.37379 31.4735 1.78453 27.304 3.00243C23.6503 4.11525 21.1142 5.57195 19.71 6.52238C19.6909 6.53671 19.6718 6.54626 19.6527 6.56059C19.6288 6.57492 19.6097 6.58925 19.5906 6.60358C19.2133 6.86626 18.8408 7.14327 18.4826 7.43461C19.1608 6.97133 27.5475 2.03289 39.2011 3.55645C53.1615 5.38091 65.928 16.2178 65.928 30.5173C65.928 41.5213 57.4075 49.9177 47.4255 49.3206C32.6006 48.4275 28.8657 33.2588 36.5743 26.706C34.4967 26.2571 30.5851 27.1359 27.8675 31.1907C25.427 34.8349 25.5655 40.4611 27.0699 44.4491C31.1917 53.0937 39.6262 57.5211 48.567 56.9767Z" fill="url(#paint10_radial_389_2474)"/>
<path d="M71.0336 15.468C69.9733 14.0782 68.8175 12.7743 67.5948 11.5469C66.6157 10.5105 65.5602 9.5505 64.4569 8.66693C65.0921 9.22095 65.7035 9.8084 66.2814 10.4293C68.4211 12.7361 70.1118 15.4633 71.1004 18.4531C73.1637 24.6858 73.0299 32.4899 69.0897 38.6176C64.3948 45.9202 56.7579 49.5261 48.4953 49.3494C48.1371 49.3494 47.7789 49.3446 47.416 49.3207C32.6006 48.4276 28.8657 33.2588 36.5791 26.7061C34.5015 26.2571 30.5899 27.1359 27.8675 31.1908C25.427 34.8349 25.5655 40.4611 27.0699 44.4492C26.1529 42.5292 25.4795 40.571 25.1309 38.2116C23.1822 25.0631 32.0323 13.8489 40.1516 11.0741C35.7719 7.25799 24.8013 7.51589 16.6342 13.5098C11.8773 17.0011 8.47196 21.9682 6.67617 27.8906C6.93885 24.5712 8.19973 19.6089 10.7836 14.5415C8.05167 15.9504 4.56993 20.416 2.85054 24.5521C0.37177 30.5126 -0.502249 37.6433 0.2858 44.4253C0.343113 44.9363 0.400426 45.4426 0.467291 45.9488C3.64815 64.6041 19.8867 78.8081 39.4495 78.8081C61.2904 78.8081 79 61.1033 79 39.2576C78.9905 30.3264 76.0293 22.0876 71.0336 15.468Z" fill="url(#paint11_linear_389_2474)"/>
<path d="M71.1052 18.4483C70.1166 15.4633 68.4258 12.7361 66.2862 10.4245C63.7644 7.70693 60.6265 5.6389 57.3072 4.02937C54.4797 2.65864 51.5281 1.57925 48.481 0.905825C43.0172 -0.297742 37.2859 -0.273862 32.123 0.810304C26.5111 1.99477 21.5775 4.41623 18.4539 7.44425C20.7942 6.02576 24.0562 4.87473 26.3822 4.28727C37.1761 1.56492 49.0589 4.51175 57.1639 12.2681C58.7925 13.8251 60.254 15.5683 61.4385 17.4931C66.2718 25.3354 65.8133 35.1884 62.045 41.0008C59.2462 45.3184 53.2523 49.3685 47.6547 49.3255C56.2373 49.7745 64.2372 46.1638 69.0945 38.6128C73.0347 32.4851 73.1685 24.681 71.1052 18.4483Z" fill="url(#paint12_linear_389_2474)"/>
<path d="M71.1052 18.4483C70.1166 15.4633 68.4258 12.7361 66.2862 10.4245C63.7644 7.70693 60.6265 5.6389 57.3072 4.02937C54.4797 2.65864 51.5281 1.57925 48.481 0.905825C43.0172 -0.297742 37.2859 -0.273862 32.123 0.810304C26.5111 1.99477 21.5775 4.41623 18.4539 7.44425C20.7942 6.02576 24.0562 4.87473 26.3822 4.28727C37.1761 1.56492 49.0589 4.51175 57.1639 12.2681C58.7925 13.8251 60.254 15.5683 61.4385 17.4931C66.2718 25.3354 65.8133 35.1884 62.045 41.0008C59.2462 45.3184 53.2523 49.3685 47.6547 49.3255C56.2373 49.7745 64.2372 46.1638 69.0945 38.6128C73.0347 32.4851 73.1685 24.681 71.1052 18.4483Z" fill="url(#paint13_linear_389_2474)"/>
<defs>
<radialGradient id="paint0_radial_389_2474" cx="0" cy="0" r="1" gradientUnits="userSpaceOnUse" gradientTransform="translate(70.6279 14.9285) scale(89.6365)">
<stop stop-color="#FFF44F"/>
<stop offset="0.2949" stop-color="#FF980E"/>
<stop offset="0.4315" stop-color="#FF5D36"/>
<stop offset="0.5302" stop-color="#FF3750"/>
<stop offset="0.7493" stop-color="#F5156C"/>
<stop offset="0.7648" stop-color="#F1136E"/>
<stop offset="0.8801" stop-color="#DA057A"/>
<stop offset="0.9528" stop-color="#D2007F"/>
</radialGradient>
<radialGradient id="paint1_radial_389_2474" cx="0" cy="0" r="1" gradientUnits="userSpaceOnUse" gradientTransform="translate(6.54366 18.6366) scale(53.0493)">
<stop stop-color="#B5007F"/>
<stop offset="1" stop-color="#F5156C" stop-opacity="0"/>
</radialGradient>
<radialGradient id="paint2_radial_389_2474" cx="0" cy="0" r="1" gradientUnits="userSpaceOnUse" gradientTransform="translate(78.2904 9.82817) scale(105.256)">
<stop stop-color="#FFDD00" stop-opacity="0.6"/>
<stop offset="0.0836672" stop-color="#FFD801" stop-opacity="0.5244"/>
<stop offset="0.1822" stop-color="#FECA05" stop-opacity="0.4353"/>
<stop offset="0.2884" stop-color="#FEB20C" stop-opacity="0.3394"/>
<stop offset="0.3998" stop-color="#FD9115" stop-opacity="0.2388"/>
<stop offset="0.5154" stop-color="#FB6621" stop-opacity="0.1343"/>
<stop offset="0.6329" stop-color="#F9332F" stop-opacity="0.028164"/>
<stop offset="0.664" stop-color="#F92433" stop-opacity="0"/>
</radialGradient>
<radialGradient id="paint3_radial_389_2474" cx="0" cy="0" r="1" gradientUnits="userSpaceOnUse" gradientTransform="translate(41.7499 43.8455) scale(135.789)">
<stop offset="0.1528" stop-color="#960E18"/>
<stop offset="0.2061" stop-color="#CC2335" stop-opacity="0.5541"/>
<stop offset="0.2495" stop-color="#F13148" stop-opacity="0.1914"/>
<stop offset="0.2724" stop-color="#FF3750" stop-opacity="0"/>
</radialGradient>
<radialGradient id="paint4_radial_389_2474" cx="0" cy="0" r="1" gradientUnits="userSpaceOnUse" gradientTransform="translate(31.4744 42.1381) scale(135.789)">
<stop offset="0.1129" stop-color="#960E18"/>
<stop offset="0.1893" stop-color="#CC2335" stop-opacity="0.5541"/>
<stop offset="0.2515" stop-color="#F13148" stop-opacity="0.1914"/>
<stop offset="0.2843" stop-color="#FF3750" stop-opacity="0"/>
</radialGradient>
<linearGradient id="paint5_linear_389_2474" x1="45.2511" y1="7.65955" x2="68.4849" y2="47.9018" gradientUnits="userSpaceOnUse">
<stop stop-color="#FFBC04"/>
<stop offset="0.2597" stop-color="#FFA202" stop-opacity="0.4886"/>
<stop offset="0.5078" stop-color="#FF8E00" stop-opacity="0"/>
</linearGradient>
<radialGradient id="paint6_radial_389_2474" cx="0" cy="0" r="1" gradientUnits="userSpaceOnUse" gradientTransform="translate(68.7475 11.8964) scale(84.1374)">
<stop stop-color="#FF980E"/>
<stop offset="0.295" stop-color="#FF7139"/>
<stop offset="0.4846" stop-color="#FF5B51"/>
<stop offset="0.626" stop-color="#FF4F5E"/>
<stop offset="0.7365" stop-color="#FF4055"/>
<stop offset="0.8428" stop-color="#FF3750"/>
</radialGradient>
<radialGradient id="paint7_radial_389_2474" cx="0" cy="0" r="1" gradientUnits="userSpaceOnUse" gradientTransform="translate(68.7475 11.8964) scale(84.1374)">
<stop offset="0.0840745" stop-color="#FFDE08"/>
<stop offset="0.2081" stop-color="#FFD609" stop-opacity="0.832"/>
<stop offset="0.4033" stop-color="#FFBF0B" stop-opacity="0.5677"/>
<stop offset="0.6437" stop-color="#FF9B0F" stop-opacity="0.242"/>
<stop offset="0.8224" stop-color="#FF7B12" stop-opacity="0"/>
</radialGradient>
<radialGradient id="paint8_radial_389_2474" cx="0" cy="0" r="1" gradientUnits="userSpaceOnUse" gradientTransform="translate(49.3086 38.075) rotate(75.6886) scale(41.2647 43.0622)">
<stop offset="0.3634" stop-color="#FF3750"/>
<stop offset="0.4111" stop-color="#FF444B" stop-opacity="0.7895"/>
<stop offset="0.5902" stop-color="#FF7139" stop-opacity="0"/>
</radialGradient>
<radialGradient id="paint9_radial_389_2474" cx="0" cy="0" r="1" gradientUnits="userSpaceOnUse" gradientTransform="translate(42.2646 41.5528) rotate(75.6886) scale(41.2166 41.2506)">
<stop offset="0.2159" stop-color="#FF3750" stop-opacity="0.8"/>
<stop offset="0.2702" stop-color="#FF444B" stop-opacity="0.6316"/>
<stop offset="0.4739" stop-color="#FF7139" stop-opacity="0"/>
</radialGradient>
<radialGradient id="paint10_radial_389_2474" cx="0" cy="0" r="1" gradientUnits="userSpaceOnUse" gradientTransform="translate(85.5391 2.39214) scale(142.208)">
<stop offset="0.0535657" stop-color="#FFF44F"/>
<stop offset="0.4573" stop-color="#FF980E"/>
<stop offset="0.5211" stop-color="#FF8424"/>
<stop offset="0.5871" stop-color="#FF7634"/>
<stop offset="0.6393" stop-color="#FF7139"/>
</radialGradient>
<linearGradient id="paint11_linear_389_2474" x1="58.2751" y1="6.95242" x2="17.9611" y2="76.7783" gradientUnits="userSpaceOnUse">
<stop stop-color="#FFF44F" stop-opacity="0.8"/>
<stop offset="0.75" stop-color="#FFF44F" stop-opacity="0"/>
</linearGradient>
<linearGradient id="paint12_linear_389_2474" x1="45.4401" y1="49.5645" x2="45.4401" y2="0.500368" gradientUnits="userSpaceOnUse">
<stop stop-color="#3A8EE6"/>
<stop offset="0.2359" stop-color="#5C79F0"/>
<stop offset="0.6293" stop-color="#9059FF"/>
<stop offset="1" stop-color="#C139E6"/>
</linearGradient>
<linearGradient id="paint13_linear_389_2474" x1="27.3848" y1="0.275428" x2="67.1965" y2="40.0872" gradientUnits="userSpaceOnUse">
<stop offset="0.8054" stop-color="#9059FF" stop-opacity="0"/>
<stop offset="1" stop-color="#6E008B" stop-opacity="0.5"/>
</linearGradient>
</defs>
</svg>
