<svg width="54" height="56" viewBox="0 0 54 56" fill="none" xmlns="http://www.w3.org/2000/svg">
<g clip-path="url(#clip0_389_2457)">
<path d="M38.6447 12.4481L6.76117 23.6074L17.9204 55.4909L49.8039 44.3317L38.6447 12.4481Z" fill="#FEDDA6"/>
<path d="M7.41998 12.01C8.00998 11.55 7.01999 11.95 7.71999 11.67C7.70999 11.89 7.71998 11.89 7.41998 12.01Z" fill="#202020"/>
<path d="M5.80003 14.37C5.5121 15.7914 5.32828 17.2319 5.25003 18.68V18.74V18.68C6.50003 16.52 7.96003 14.35 9.25003 12.39C9.51003 12.03 9.47002 12.74 10.07 11.95C11.4075 10.1479 13.2276 8.76118 15.32 7.95001C16.4609 7.48095 17.6521 7.14539 18.87 6.95001C19.4593 6.85318 20.0536 6.78974 20.65 6.76001C21.1311 6.74423 21.6127 6.76765 22.09 6.83002L21.82 6.95001C22.2054 6.95837 22.5907 6.92819 22.97 6.85999C23.4163 6.77787 23.8738 6.77787 24.32 6.85999C24.19 6.92999 23.9 6.85999 23.89 7.04999C24.2184 6.96826 24.5617 6.96826 24.89 7.04999L25.46 7.20001C25.46 7.20001 25.59 7.20001 25.57 7.20001V7.25C25.57 7.25 25.57 7.25 25.57 7.31C25.19 7.51 24.87 7.60001 24.49 7.76001L24.24 7.88C24.3147 7.90894 24.3803 7.95728 24.43 8.02002C24.49 8.28002 23.76 8.96001 23.05 9.51001C22.6964 9.82244 22.3625 10.1564 22.05 10.51C21.6897 10.8549 21.389 11.257 21.16 11.7C21.16 11.59 21.25 11.4 21.16 11.49C20.232 12.9387 19.4578 14.4804 18.85 16.09C18.2164 17.7693 17.8487 19.5373 17.76 21.33C17.67 21.19 17.51 21.04 17.39 21.24C17.66 21.44 17.64 22.51 17.69 23.44C17.39 23.87 17.98 25.03 17.87 26.14L17.8 26.05C18.15 26.83 17.66 27.32 18.04 27.89H17.9C17.8238 27.8788 17.7463 27.8788 17.67 27.89C17.59 27.89 17.54 27.89 17.54 27.89C17.54 27.89 17.48 27.89 17.36 27.83H17.21C17.21 27.83 17.1 27.83 17.13 27.83L17.21 27.72L17.36 27.49C17.02 27.06 17.78 26.35 17.74 25.66H17.65C17.7705 25.1472 17.9242 24.6429 18.11 24.15H18.18C18.2512 23.8424 18.3482 23.5413 18.47 23.25C18.58 22.97 18.69 22.74 18.78 22.55C18.96 22.18 19.05 21.98 18.93 21.85C19.15 21.72 18.93 22.08 18.87 22.41C18.81 22.74 18.71 23.02 19.01 22.79C19.5104 21.2768 20.4633 19.9539 21.74 19C22.0552 18.7826 22.39 18.5951 22.74 18.44C22.923 18.3662 23.11 18.3028 23.3 18.25L23.59 18.17C23.64 18.17 23.59 18.31 23.59 18.38C23.4052 18.9953 23.3374 19.6397 23.39 20.28C23.3 20.8 23.23 21.28 23.17 21.79C23.11 22.3 23.11 22.71 23.12 23.14C23.1265 23.9494 23.1833 24.7576 23.29 25.56C23.22 26.09 23.29 26.42 23.14 26.56L23.27 27.01C23.27 27.19 23.5 27.34 23.61 27.51C23.815 27.7973 24.0571 28.0562 24.33 28.28C24.23 28.17 24.39 28.6 24.53 28.8C24.97 29.53 25.39 29.24 25.91 29.98C25.6 29.79 25.44 29.77 25.44 29.98C26.15 30.37 26.96 30.98 27.77 31.41C27.63 31.41 27.42 31.29 27.4 31.41C27.8447 31.5525 28.2736 31.7402 28.68 31.97C29.0629 32.1771 29.4857 32.2999 29.92 32.33L29.56 32.37C30.92 32.87 30.04 32.14 31.21 32.37C30.92 32.37 31.02 32.49 30.96 32.56L31.96 32.41C32.3162 32.3678 32.6699 32.3077 33.02 32.23C33.6798 32.1052 34.3192 31.8898 34.92 31.59V31.68C36.109 31.2047 37.1854 30.486 38.08 29.57C38.5 29.31 38.27 30.03 39.16 29.05C39.02 28.95 39.35 28.5 39.62 28.12C39.89 27.74 40.04 27.41 39.62 27.58C40.4297 26.7108 41.0615 25.6917 41.48 24.58C41.4 25.08 42.13 24.26 41.76 25.12C41.92 24.94 42.11 24.76 42.26 24.56C42.37 24.72 41.9 25.21 42.18 25.08C42.4 24.65 42.71 23.28 42.87 22.88C42.87 21.96 42.64 21.11 42.63 19.76C42.74 20.41 43.05 19.4 43.1 19.85C42.8882 19.2014 42.6136 18.5751 42.28 17.98C42.2 17.55 42.59 17.84 42.34 17.22C42.25 17.28 42.13 17.02 42.01 16.85C41.9372 16.5102 41.8403 16.176 41.72 15.85C41.58 15.41 41.42 14.94 41.55 14.78C41.68 14.62 41.92 15.44 41.84 14.92C41.5 14.13 41.36 14.15 40.99 13.38C40.8 12.84 40.07 12 40.19 12.62C40.37 12.97 40.31 12.39 40.49 12.94C40.2422 12.7398 40.0293 12.4999 39.86 12.23C39.61 11.91 39.36 11.54 39.14 11.23C39.34 11.44 39.4 11.36 39.55 11.4C38.69 10.61 37.92 9.73997 36.98 8.96997C36.84 9.06997 37.51 9.08002 37.57 9.27002C36.66 7.92002 34.97 7.37 34.02 6.44C34.22 6.52 34.02 6.70997 34.02 6.65997C33.38 6.25997 33.51 6.07999 33.02 5.92999C33.02 5.75999 32.43 5.69998 31.94 5.53998C31.66 5.53998 31.85 5.41998 32.26 5.53998C31.58 5.33998 28.76 4.53997 27.2 4.08997C26.7403 4.22864 26.2565 4.26958 25.78 4.21002L25.96 4C25.63 3.83 24.7 3.88 24.65 3.69C24.24 3.81 25.02 3.79 25.77 3.81C26.52 3.83 27.23 3.90998 26.67 3.91998C26.41 3.65998 25.11 4.06998 25.38 3.78998C24.6399 3.83376 23.8974 3.81705 23.16 3.73999C23.37 3.73999 23.78 3.41 23.16 3.44C22.06 3.44 22.85 3.53997 21.97 3.65997C21.79 3.65997 21.61 3.73999 21.43 3.79999C21.43 4.02999 20.43 3.87002 20.89 4.08002C20.73 3.89002 19.37 4.43002 19.42 4.08002L19.51 3.77002C19.05 3.88002 18.81 4.23 18.51 4.44C18.45 4.44 18.31 4.43998 18.32 4.34998C18.32 4.78998 17.23 4.60001 16.86 5.13C16.7313 5.155 16.6044 5.18838 16.48 5.22998L9.26003 7.40002L15.21 3.21997C15.6891 2.87029 16.2016 2.56886 16.74 2.32001C17.0905 2.12132 17.479 1.99867 17.88 1.96002C18.5839 1.47099 19.3801 1.13071 20.22 0.960022C20.05 1.05002 19.8 1.12999 19.78 1.23999C20.2129 1.2063 20.6313 1.0691 21 0.839966C20.9 0.939966 22.22 0.840024 22.88 0.900024C23.66 0.650024 23.35 0.449978 23.41 0.289978C24.2 0.609978 25.69 -0.239976 26.65 0.150024C26.37 0.220024 25.48 0.39999 26.15 0.48999C26.9 0.89999 27.63 0.120005 28.82 0.380005L28.54 0.0100098C29.07 0.23001 30.32 -0.0999902 30.17 0.26001C30.58 0.16001 31.56 0.500005 31.46 0.130005C31.973 0.270942 32.4939 0.381155 33.02 0.460022L33.86 0.580017L34.76 0.799988C35.2855 0.944374 35.7948 1.14209 36.28 1.39001C36.6625 1.57564 37.0028 1.83766 37.28 2.15997C37.57 2.21997 38.16 2.61 38.12 2.38C37.8 1.97 37.46 2.21001 37.37 2.01001C37.6 2.11001 37.7 2.01001 37.74 2.01001C38.26 2.37001 38.66 2.63999 38.02 2.60999C39.08 3.45999 39.55 2.76999 40.93 3.85999C40.78 3.93999 40.87 4.04002 41.29 4.33002L42.21 4.70001C43.07 5.43001 42.51 5.35 42.38 5.56C42.87 5.9 43.38 6.38998 43.73 6.41998L44.07 7.12C43.83 6.6 44.52 7.34 44.76 7.5L44.52 7.34998C44.52 7.50998 45.06 7.93997 45.32 8.15997C45.38 7.98997 44.92 7.45997 44.67 7.15997C44.97 7.29997 45.29 7.64997 45.67 7.83997C45.41 7.90997 46.24 8.64998 46.52 9.03998C46.8 9.42998 47.09 9.35999 47.19 9.48999C47.1 9.57999 47.77 10.18 47.35 9.96997C47.19 9.84997 47.16 9.56997 46.87 9.40997C47.04 9.74997 46.87 9.84 47.45 10.31C47.88 10.69 47.74 9.89998 48.26 10.85C48.04 10.66 47.93 10.68 47.74 10.56L48.23 11.44L48.44 11.34C48.44 11.48 48.44 11.42 48.44 11.49C48.83 11.57 49.36 12.71 49.69 12.77C49.9474 13.2271 50.1648 13.7056 50.34 14.2L50.28 14.13C50.4613 14.7432 50.7793 15.3073 51.21 15.78C51.3978 16.2535 51.6288 16.7088 51.9 17.14C52.02 17.98 51.2 17.67 51.77 18.43C51.97 19.23 52.46 19.6 52.53 19.24C52.62 20 52.9 20.77 52.97 21.58C53.1352 22.3378 53.1352 23.1222 52.97 23.88C53.05 24.1 53.12 23.96 53.15 24.42L53.06 26.14L52.89 27.78C52.8139 28.7758 52.574 29.7523 52.18 30.67C52.18 30.04 51.97 30.58 51.85 30.57C51.95 31.12 51.52 31.13 51.85 31.38C52.06 31.38 52.16 31.45 52.35 30.87C52.2094 32.2018 51.8443 33.5002 51.27 34.71C51.47 34.39 51.45 34.71 51.42 34.97C51.14 34.78 50.83 35.68 50.65 36.39L50.8 36.56L50.44 36.93C50.39 37.21 50.72 37.38 50.26 37.98C50.1541 37.9745 50.0501 38.0104 49.97 38.08C49.8438 38.982 49.5007 39.8398 48.97 40.58L48.38 41.02C48.23 41.34 48.07 41.95 48.46 41.45C47.46 42.53 46.96 43.27 46.46 43.45C45.7895 44.7396 44.8801 45.89 43.78 46.84C43.1992 47.3697 42.5735 47.8483 41.91 48.27C41.2916 48.7016 40.6395 49.0828 39.96 49.41V49.25C39.22 49.48 39.73 49.66 39.2 49.82C39.36 49.58 38.56 49.82 39.01 49.38C38.01 49.73 37.85 50.18 37.23 50.53C37.23 50.75 37.7 50.2 37.67 50.47C37.64 50.74 36.24 50.92 36.17 51.22C35.88 51.22 36 50.94 36.1 50.78L35.53 51.13C34.67 51.06 37.03 49.96 36.09 49.84L35.55 50.08C34.93 49.97 36.89 49.25 35.48 49.63C34.93 49.97 34.54 50.55 35.12 50.49C33.88 51 34.75 51.37 33.33 51.74C32.9 51.68 34.45 51.39 34.11 51.24C33.39 51.19 32.82 51.73 32.21 51.81C32.89 51.74 32.42 52.18 31.99 52.34C31.21 52.34 32.41 51.98 31.35 52.15C31.22 52.35 30.26 52.67 31.13 52.62C30.81 53.06 30 52.73 29.46 53.12C29.08 52.92 30.46 52.33 29.28 52.39C29.51 52.62 27.86 52.87 28.53 53.19C28.05 53.19 27.99 52.96 28.31 52.77C27.64 52.68 26.72 53.4 26.48 52.86L26.26 53.12C26.05 53.03 25.74 52.97 25.41 52.82C25.08 52.67 24.64 52.92 24.24 52.92C23.84 52.92 23.54 52.92 23.58 52.68C23.39 52.68 22.06 52.53 22.58 52.86C23.4 53.12 23.58 52.77 23.99 53.19C23.43 52.82 22.78 53.1 22.27 53.19L22.22 53.03C21.91 53.03 21.27 52.88 21.06 53.03C21.29 53.03 21.2 52.86 20.98 52.78L20.63 52.95C19.44 52.8 20.44 52.51 19.32 52.29C19.6163 52.3101 19.9137 52.3101 20.21 52.29C20.01 52.29 19.68 52.01 19.15 51.9C18.8441 52.0415 18.5303 52.165 18.21 52.27C17.56 52.16 18.01 51.96 17.33 51.97H18.21C18.35 51.97 17.77 51.5 16.99 51.18C16.47 51.04 15.55 50.99 16.31 51.43C15.91 51.27 15.4 50.91 15.78 50.9C14.85 50.59 15.78 51.16 14.97 50.9C14.72 50.61 13.87 49.9 13.41 49.44L14.34 49.53L13.84 49.26C14.63 49.36 13.62 48.9 14.14 48.83C13.7812 48.6298 13.4066 48.4592 13.02 48.32C13.72 49.32 11.6 48.19 11.63 48.73C11.4084 48.6397 11.2147 48.4921 11.0688 48.3024C10.923 48.1126 10.8302 47.8875 10.8 47.65C10.72 47.33 10.6 47.08 9.74002 46.84C9.88002 47.09 9.05003 46.84 9.92003 47.39C9.17003 46.74 9.08003 47.33 8.34003 46.39C9.10003 46.84 7.97003 45.39 9.05003 46.08C8.89003 46.08 9.48003 46.64 9.66003 46.71C9.47003 46.32 9.99004 46.44 9.27003 45.77C8.80003 45.4 8.19003 44.84 8.12003 45.08C8.05003 45.32 8.82003 45.7 8.36003 45.62C7.36003 44.86 7.57003 44.41 6.89003 44.35C7.44003 44.9 7.38003 45.22 7.25003 45.35L6.56003 44.75H6.80003C5.91003 43.59 6.27003 44.65 5.37003 43.54L5.22003 42.81C5.44003 42.81 5.71003 43.29 6.00003 43.62C6.29003 43.95 6.54004 44.21 6.63004 43.96C6.03004 43.29 5.63002 43.19 5.24002 42.44C5.39002 42.56 5.56003 42.76 5.70003 42.88C5.52003 42.61 5.80003 41.99 4.75003 41.19C4.27003 40.72 4.51003 41.19 4.36003 41.19C3.53003 40 3.10003 39.75 2.64003 38.92C3.03003 38.92 1.87003 37.44 2.64003 38.19C2.76848 38.6892 2.98157 39.1627 3.27003 39.59C3.55012 40.0412 3.91725 40.4322 4.35002 40.74C4.35002 40.08 4.93003 41.74 5.47003 41.74C4.77003 40.84 5.17003 40.63 5.27003 40.34C5.11789 40.1166 4.93623 39.9147 4.73003 39.74C4.45003 39.74 4.68003 40.1 4.48003 40.26C3.94999 39.3193 3.31238 38.4434 2.58003 37.65C2.48003 37.22 2.77003 37.23 3.03003 37.65C2.25322 36.3281 1.66423 34.9044 1.28003 33.42C1.15003 34.42 0.740021 31.88 0.600021 32.58C0.710021 33.37 0.660021 34.12 0.350021 33.75C0.230021 33.25 0.530034 33.75 0.550034 33.48C0.140034 32.92 0.630024 32.48 0.150024 31.9C0.600024 33.28 0.690034 32.07 1.05003 32.25C0.660034 31.31 1.26003 32.25 1.05003 31.25C0.663065 30.1981 0.424107 29.0976 0.340027 27.98C0.580027 26.59 0.480032 24.46 0.720032 23.22C1.00003 22.62 1.26002 23.11 1.46002 22.45C1.66002 21.79 0.940035 22.95 1.38004 21.81V21.94C1.38004 21.56 2.19003 19.89 1.83003 19.39L2.08003 19.87C2.14921 19.6704 2.18633 19.4612 2.19003 19.25C2.31003 19.25 2.50002 19.08 2.46002 19.45C2.82583 18.7566 3.095 18.0164 3.26003 17.25L2.85002 17.63C3.26267 16.4832 3.80272 15.3863 4.46002 14.36L4.63004 14.51C4.72004 14.26 4.83002 14.02 4.93002 13.77C5.01002 14.04 5.51003 13.52 5.61003 13.08C5.36218 13.7351 5.14856 14.4027 4.97003 15.08C4.58003 15.49 5.05003 14.41 4.69003 14.61C4.24617 15.0081 3.97677 15.5649 3.94003 16.16C4.08416 15.9084 4.18552 15.6347 4.24002 15.35C4.58002 15.35 4.24002 15.98 4.24002 16.35C4.34002 16.13 4.57002 15.87 4.51003 15.78C4.38495 16.3498 4.18664 16.9011 3.92003 17.42C4.03003 16.88 3.63004 17.6 3.63004 17.42C3.85004 17.59 3.63003 18.3 3.22003 19.19C2.68003 19.73 2.82003 20.97 2.48003 22.02C2.29884 21.4275 2.25777 20.8011 2.36003 20.19C2.01003 20.84 2.14002 20.96 1.82002 21.62C2.0503 22.1274 2.15 22.6843 2.11003 23.24H1.90002C1.90002 24.09 2.15003 24.13 1.97003 25.16C1.71086 26.8148 1.68393 28.4977 1.89003 30.16L1.69003 30.24C2.21003 30.94 2.32003 32.72 2.87003 33.62C3.10552 34.4764 3.44117 35.3022 3.87003 36.08C4.24028 36.6539 4.52021 37.2812 4.70003 37.94C6.34897 40.4611 8.31883 42.7571 10.56 44.77L9.97003 44.62C10.54 44.85 10.12 45.03 10.6 45.35C10.24 44.76 11.41 45.6 11.83 45.69C12.931 46.7211 14.2659 47.4692 15.72 47.87V48.08C17.01 48.3 18.25 49.16 19.72 49.66C19.9329 49.9161 20.2313 50.0866 20.56 50.14C21.48 49.97 21.9 50.14 23.16 50.07C23.61 50.07 24.16 50.24 24.79 50.27C25.42 50.3 25.98 50.37 26.45 50.44C27.3 50.29 28.15 50.11 29 50C29.85 49.89 30.68 49.63 31.53 49.41C33.2614 48.9893 34.939 48.372 36.53 47.57L36.86 47.69C37.62 47.26 38.35 46.69 39.16 46.28C39.97 45.87 40.71 45.28 41.41 44.71C42.1159 44.1839 42.7842 43.6092 43.41 42.99C43.9517 42.4188 44.4404 41.7996 44.87 41.14L45.03 41.62C45.67 40.95 46.16 39.86 45.77 39.89C46.063 39.4687 46.3205 39.0238 46.54 38.56C46.695 38.1437 46.937 37.7652 47.25 37.45C47.74 36.65 47.55 36.33 47.79 35.59C48.1278 34.9273 48.4023 34.2342 48.61 33.52C48.8238 32.8321 48.9908 32.1304 49.11 31.42L48.98 31.85C48.98 32.06 49.18 32.12 49.31 31.69C49.39 31.02 49.94 29.28 49.31 29.85C49.98 28.02 49.81 25.33 50.19 23.65C50.04 23.8 50.07 23.35 49.93 23.17C49.82 22.39 49.93 21.57 49.75 20.81C49.6661 20.0915 49.4633 19.392 49.15 18.74C49.15 18.48 49.5 19.06 49.29 18.43C49.11 18.08 49.12 18.48 48.89 18.06C47.78 15.74 46.74 13.19 45.1 11.34C43.597 9.7374 41.9575 8.26859 40.2 6.95001C38.5365 5.65219 36.6984 4.59513 34.74 3.81L34.82 3.73999C34.4821 3.69424 34.1478 3.62403 33.82 3.52997L33.34 3.37C33.18 3.31 32.96 3.27998 32.78 3.22998C32.1025 2.98843 31.369 2.95021 30.67 3.12C30.35 3 29.41 2.97 29.67 2.81C28.9392 2.85385 28.2058 2.82704 27.48 2.72998C26.632 2.64679 25.7761 2.71108 24.95 2.91998C25.0874 2.91185 25.2224 2.88148 25.35 2.83002C23.71 2.72002 22.35 3.26002 20.71 3.52002C20.86 3.44002 21.15 3.32997 21.17 3.21997C20.48 3.21997 19.83 4.04999 19.35 3.73999C19 3.87999 19.19 4.05002 19.35 3.96002C18.8764 4.11112 18.415 4.29834 17.97 4.52002C17.5592 4.7166 17.1675 4.95089 16.8 5.21997L15.32 2.88C16.818 2.25274 18.3809 1.79328 19.98 1.51001C21.565 1.21236 23.179 1.09825 24.79 1.16998C26.37 1.44998 26.38 1.67998 26.33 1.78998C26.28 1.89998 26.15 1.92001 27.4 1.95001C27.58 2.07001 27.57 1.80002 27.59 1.90002C28.59 1.99002 28.91 2.74 29.59 2.69C29.42 2.34 30.05 2.68999 30.12 2.48999C31.2247 3.09248 32.3749 3.60737 33.56 4.02997L33.39 4.12C35.2 4.45 36.82 5.82001 38.28 6.51001C40.1241 8.19164 41.6427 10.1984 42.76 12.43C43.03 12.96 43.31 13.5 43.54 14.04L43.91 14.86L44.25 15.79C44.6433 17.0465 44.8521 18.3535 44.87 19.67C44.8512 22.239 44.1985 24.7637 42.97 27.02C41.768 29.3062 40.028 31.2658 37.9 32.73C36.9613 33.3258 35.954 33.806 34.9 34.16C33.8047 34.5129 32.6608 34.6917 31.51 34.69C29.1998 34.64 26.9709 33.8279 25.17 32.38C24.7332 32.0554 24.322 31.6977 23.94 31.31C23.5547 30.9436 23.197 30.5492 22.87 30.13C22.5276 29.7395 22.2135 29.3252 21.93 28.89C21.82 28.73 21.55 28.35 21.3 27.96C21.2348 27.7438 21.1846 27.5232 21.15 27.3L21.05 26.79C20.97 26.28 20.9 25.79 20.85 25.28L20.79 24.52V24.28V24.19C20.7777 24.1374 20.7777 24.0826 20.79 24.03C20.8051 23.9652 20.8252 23.9017 20.85 23.84C20.85 23.75 20.85 23.76 20.78 23.73C20.78 23.32 20.65 23.27 20.57 23.33C20.4417 23.4854 20.3679 23.6786 20.36 23.88C20.31 23.82 20.36 23.77 20.26 23.76C20.37 23.91 20.36 23.95 20.33 24.05C20.2 24.4 20.08 24.77 20.2 24.91C19.9566 25.6122 19.7627 26.3306 19.62 27.06C19.55 27.43 19.49 27.77 19.42 28.21V28.32V28.42V28.55V28.62C19.42 28.68 19.42 28.74 19.35 28.81C19.284 28.9343 19.2106 29.0545 19.13 29.17C19.0437 29.2795 18.9466 29.38 18.84 29.47C18.74 29.55 18.84 29.47 18.55 29.67C18.1529 29.9053 17.6833 29.9871 17.23 29.9C16.8903 29.831 16.5743 29.6749 16.3131 29.447C16.0519 29.2191 15.8544 28.9272 15.74 28.6V28.51C15.7121 28.3982 15.692 28.2846 15.68 28.17V27.55V26.98C15.5603 25.2861 15.5336 23.5869 15.6 21.89C15.6 22.48 15.85 22.77 15.87 22.09L15.56 21.37L15.66 21.26C15.66 20.78 15.57 20.26 15.4 20.72C15.5154 19.2102 15.8108 17.7196 16.28 16.28C16.5285 15.5602 16.819 14.8557 17.15 14.17L17.66 13.17L18.27 12.17C19.08 10.9109 20.033 9.74991 21.11 8.71002L21.21 8.60999H21.29L21.51 8.51001C21.51 8.51001 21.66 8.44999 21.63 8.42999L21.56 8.35999C21.4837 8.32327 21.4031 8.29637 21.32 8.27997H21.08H20.91H20.65C19.9739 8.37964 19.3056 8.52667 18.65 8.71997C16.5928 9.24525 14.6727 10.207 13.02 11.54C10.18 13.31 8.25003 16.17 6.37003 19.27L3.72003 23.66L3.88004 18.61C3.94583 17.1723 4.22904 15.7529 4.72003 14.4C5.18896 13.0436 5.77795 11.7317 6.48003 10.48V10.74C6.47804 10.9741 6.46133 11.2079 6.43002 11.44C6.30552 12.4331 6.09474 13.4135 5.80003 14.37Z" fill="#202020"/>
<path d="M6.61999 12.85C6.35999 12.91 5.84 13.44 6.02 12.85C6.19 12.88 6.55999 12.7 6.61999 12.85Z" fill="#202020"/>
<path d="M0.300017 31.54C0.300017 31.54 0.300017 31.85 0.300017 31.92C0.230017 31.67 0.0600145 31.45 0.110015 31.23C0.150015 31.49 0.220017 31.43 0.300017 31.54Z" fill="#202020"/>
<path d="M1.94 36.67C1.50619 36.1913 1.16689 35.6348 0.940002 35.03C1.24 35.6 1.56 36.13 1.94 36.67Z" fill="#202020"/>
<path d="M3.90999 41.31C4.04999 41.75 3.90999 41.69 3.60999 41.19C3.64999 41.11 3.78999 41.25 3.90999 41.31Z" fill="#202020"/>
<path d="M4.37999 41.42C4.56223 41.6401 4.68909 41.9008 4.74998 42.18C4.83998 42.09 4.09999 41.45 4.37999 41.42Z" fill="#202020"/>
<path d="M12.01 49.26C12.3481 49.4015 12.6567 49.605 12.92 49.86C12.72 49.65 11.72 49.37 12.01 49.26Z" fill="#202020"/>
<path d="M16.69 51.37C16.8138 51.4446 16.9489 51.4986 17.09 51.53C17.35 51.69 17.01 51.69 16.77 51.6L16.69 51.37Z" fill="#202020"/>
<path d="M27.64 0.0800043L28.18 0.0200043L28.09 0.170004L27.64 0.0800043Z" fill="#202020"/>
<path d="M38.63 11.03C38.99 11.37 38.71 11.38 38.74 11.46C38.47 11.11 38.99 11.49 38.63 11.03Z" fill="#202020"/>
<path d="M38.65 28.94L38.75 28.83L38.93 29.07L38.65 28.94Z" fill="#202020"/>
</g>
<defs>
<clipPath id="clip0_389_2457">
<rect width="53.02" height="55.5" fill="white"/>
</clipPath>
</defs>
</svg>
