<svg width="70" height="48" viewBox="0 0 70 48" fill="none" xmlns="http://www.w3.org/2000/svg">
    <path d="M37 47C48.0457 47 57 38.0457 57 27C57 15.9543 48.0457 7 37 7C25.9543 7 17 15.9543 17 27C17 38.0457 25.9543 47 37 47Z" fill="#82ECB7"/>
    <path d="M25.5953 23.7968L25.1865 23.4794C25.1763 23.5175 25.2728 23.6089 25.5953 23.7968Z" fill="#202020"/>
    <path d="M32.6792 16.888C32.6437 16.8702 32.6031 16.8473 32.5701 16.8321C32.6437 16.8778 32.6691 16.888 32.6792 16.888Z" fill="#202020"/>
    <path d="M6.98169 20.948C7.00205 20.9404 7.01732 20.9353 7.03005 20.9328C7.10386 20.8997 7.19295 20.8615 7.25912 20.8335L6.98169 20.948Z" fill="#202020"/>
    <path d="M32.2678 24.2537C29.2819 22.7049 27.4589 21.6004 25.6435 20.4858C25.4175 20.3461 25.189 20.2065 24.9605 20.0668C24.7345 19.9246 24.5085 19.7799 24.2775 19.6327C24.0413 19.4854 23.8027 19.333 23.5564 19.1782C23.2974 19.0157 23.0206 18.843 22.7159 18.6678C22.1066 18.3225 21.388 17.9467 20.4511 17.675C19.9839 17.5405 19.4558 17.4415 18.8871 17.4135C18.3209 17.3856 17.7521 17.4364 17.2062 17.5354C16.1601 17.7055 15.2588 18.0254 14.459 18.2997C13.649 18.5815 12.8365 18.8684 12.024 19.1528C10.3279 19.7571 8.64202 20.3563 7.02973 20.9301C6.3645 21.2373 5.59009 21.5395 4.73443 21.8492C4.31549 22.0067 3.82545 22.1488 3.46745 22.3469C3.3862 22.3977 3.30241 22.4485 3.21862 22.4992C3.13737 22.55 3.08659 22.6033 3.01804 22.6567C2.9571 22.7074 2.87839 22.7633 2.83268 22.8141L2.68542 22.9664C2.63972 23.0172 2.57878 23.0705 2.54577 23.1162L2.43913 23.2559C2.36804 23.3498 2.29695 23.4438 2.2487 23.5225C2.19538 23.6037 2.1446 23.6875 2.0989 23.8246C2.0532 23.9592 2.01511 24.1293 2.00496 24.3045C1.97703 24.6574 2.07097 25.0307 2.19031 25.2465C2.22078 25.2998 2.25124 25.3455 2.28171 25.3811C2.28679 25.3861 2.28933 25.3912 2.29441 25.3963L2.32488 25.409L2.38835 25.4344L2.51277 25.4877C2.68034 25.5562 2.84284 25.6223 3.00026 25.6857L3.72643 26.1732C4.62017 26.5312 5.57485 26.9121 6.32641 27.3691L6.2477 27.3844C6.56762 27.5037 6.885 27.6332 7.19476 27.7677C7.49945 27.8515 7.79652 27.9353 8.07835 28.014C8.50491 28.1359 8.87307 28.2502 9.10666 28.2857L9.05334 28.3238L10.1604 28.6336L9.94963 28.6463C11.5721 28.989 13.2072 29.4613 14.6265 29.9513L14.5681 29.7101C17.5769 30.8476 18.8287 30.7537 21.5327 31.8277L21.4794 31.8658C25.1534 32.333 26.946 33.8208 30.7342 34.2982C30.262 34.2398 30.8993 34.4556 30.851 34.4962C32.5471 34.8872 34.3524 35.3392 34.487 34.9329C35.7133 35.2554 35.4543 35.3189 35.5737 35.5169C35.6118 35.3367 36.6985 35.5372 37.6582 35.7734L37.1987 35.7277C38.1178 35.946 39.0445 36.1466 39.9662 36.3548L39.5092 35.8851C40.9437 36.3447 39.7783 36.3878 41.1951 36.6519L41.2459 36.3675C42.2488 36.6443 43.0232 36.9464 43.7849 37.2765C44.5466 37.6015 45.2957 37.9544 46.258 38.2718C47.2787 38.5155 48.3095 38.7517 49.3505 38.9726C50.3941 39.1858 51.4452 39.389 52.4989 39.5895C53.5526 39.7901 54.6165 39.9602 55.6753 40.1431C56.2059 40.2319 56.7341 40.3259 57.2647 40.4071L58.0594 40.529L59.0852 40.694C59.5118 40.7651 59.9358 40.8362 60.3624 40.9048C60.7788 40.9682 61.1926 41.0343 61.6065 41.0977L62.2235 41.1942C62.419 41.2196 62.5916 41.2348 62.777 41.2552C63.1401 41.2932 63.5032 41.3339 63.8637 41.372C64.5848 41.4532 65.3033 41.5345 66.0193 41.6132C66.3773 41.6563 66.7354 41.697 67.0934 41.7401L67.6316 41.8036L67.6647 41.8087C67.6672 41.8087 67.6799 41.8137 67.6773 41.8087L67.6647 41.796L67.6189 41.7426L67.5275 41.6335L67.3473 41.4151C66.3748 40.2497 65.5115 39.229 64.6102 38.1702C63.6809 37.1038 62.5764 35.9993 61.3881 34.8923C61.2637 34.6917 61.2561 34.5927 61.2028 34.4531C61.2459 34.2804 60.7432 34.0189 60.2278 33.7574C59.7098 33.4958 59.1766 33.2369 59.1462 33.0287L58.3286 32.5869C58.1585 32.3863 57.7598 32.0156 58.1661 32.2289C57.4958 31.7134 57.4475 31.7439 56.9016 31.4621L56.2897 30.7714C53.7075 28.7097 51.2193 27.3742 48.4542 25.2769C45.316 22.5068 38.75 18.2032 34.9668 15.7251C29.5485 12.3786 24.3054 7.02629 18.7246 3.64682C18.5798 3.48686 18.0771 3.24565 18.0593 3.27866L14.4514 0.638059C14.0883 0.379076 13.7912 0.287673 13.517 0.196268C13.2529 0.122635 13.0219 0.0819982 12.8187 0.0566078L12.5293 0.0235989L12.2805 0.00583925C12.2373 0.00330021 12.2018 -0.00431941 12.151 0.00329773C12.1002 0.0109149 12.0316 0.0362948 11.9606 0.0718414C11.8209 0.145474 11.6787 0.27751 11.6406 0.363838C11.6406 0.363838 11.6305 0.379078 11.6203 0.417163C11.6102 0.45271 11.5924 0.506029 11.5721 0.574583C11.5518 0.643137 11.5264 0.726923 11.4959 0.825946C11.4807 0.874188 11.4654 0.927506 11.4477 0.983365C11.4299 1.03415 11.4248 1.13825 11.4096 1.22204C11.3867 1.39977 11.3613 1.59527 11.3334 1.80347C11.3004 1.88472 11.3563 2.0777 11.3842 2.24274C11.4172 2.41285 11.4502 2.58803 11.4857 2.76831C11.5238 2.95112 11.5492 3.12632 11.6 3.32944C11.6609 3.53764 11.7219 3.75093 11.7854 3.96929C11.9098 4.40346 12.0393 4.85541 12.1941 5.33021C12.3439 5.79993 12.4912 6.28489 12.6613 6.77493C12.7197 6.93996 12.7756 7.10501 12.834 7.27259C12.8898 7.42493 12.9457 7.57727 13.0016 7.72961C13.2275 8.34406 13.4662 8.96866 13.7201 9.58311C14.2254 10.8145 14.7738 12.0079 15.2969 13.0184C16.3455 15.0421 17.2798 16.3293 17.4195 15.8317C17.4982 15.5803 17.3789 14.8872 17.0564 13.5999C16.739 12.3126 16.2135 10.4286 15.6066 7.78039L15.7209 7.89211C15.6066 7.50872 15.4974 7.14309 15.3908 6.7927C15.34 6.61751 15.2892 6.44485 15.241 6.27727C15.2207 6.20364 15.1978 6.12747 15.1775 6.05637L15.1547 5.96243C15.0988 5.72122 15.048 5.52318 14.9795 5.31752C14.9109 5.10932 14.8271 4.89604 14.7053 4.62182C14.6342 4.4644 14.5656 4.30951 14.4945 4.15463C14.4564 4.06576 14.4031 3.97182 14.3701 3.87026C14.3422 3.76616 14.3676 3.66459 14.4031 3.61127C14.5631 3.79154 14.6926 3.94643 14.7941 4.06069C14.8982 4.17494 14.982 4.24858 15.0607 4.30698C15.2156 4.4187 15.373 4.47963 15.533 4.58119C15.6295 4.64213 15.7183 4.71323 15.7793 4.79447L15.7615 4.82494C15.9011 4.82494 16.0941 4.93412 16.2642 5.06615L16.706 5.41907L17.2925 5.90658C18.072 6.55911 18.8414 7.21164 19.7021 7.65597C19.6234 7.64073 19.5193 7.7093 19.1587 7.45793C20.3191 8.23234 21.9212 9.27843 21.8603 9.53741C24.5974 11.4417 28.2968 14.2651 30.2569 15.1995L30.0995 15.169C31.2421 15.6667 31.3969 16.0627 32.5801 16.7508C32.6208 16.8194 32.6893 16.8905 32.669 16.893C33.8979 17.4592 35.825 19.1299 36.7594 19.6682L36.7188 19.8409L38.8795 21.3592L38.1026 20.7524C38.6434 20.5873 39.5523 22.1539 41.2738 23.04C42.6906 24.1369 44.765 24.4137 46.1437 25.6857C46.9867 26.0361 45.3109 25.5055 46.4789 26.1529C46.3773 26.3687 45.8898 25.9092 46.0574 26.2621C47.1771 26.9375 47.6468 27.7093 49.0408 28.5244L48.9874 28.7123C50.8816 29.672 52.047 31.2285 53.3647 31.7896C55.2005 32.9373 54.2229 33.0769 56.2313 34.1128L56.7747 34.8288C57.5034 35.4357 57.5009 34.999 58.2524 35.7404C58.1102 35.8216 59.202 36.6646 58.6333 36.3954C58.8415 36.6062 59.0598 36.8042 59.2782 37.0023L59.395 37.1064C59.4204 37.1267 59.4432 37.147 59.4712 37.1648C59.5803 37.2409 59.7301 37.3247 59.9053 37.4466C60.078 37.5634 60.2735 37.7208 60.3928 37.863C60.4512 37.9341 60.4919 37.9976 60.4868 38.0407C60.4817 38.061 60.4817 38.0839 60.4385 38.0788C60.3395 38.0433 60.2354 38.0026 60.1288 37.9595C60.4588 38.1702 60.3446 38.1829 60.2253 38.1855C60.0983 38.1855 59.9612 38.1753 60.0094 38.3022C59.9079 38.2185 59.6311 38.1651 59.4331 38.1042C59.334 38.0737 59.2604 38.0433 59.2401 38.0052C59.2172 37.9696 59.2553 37.929 59.3163 37.8655C59.3366 37.8452 59.3924 37.8605 59.4305 37.9188C59.4026 37.8528 59.3671 37.7843 59.3264 37.7183C59.1893 37.6066 59.1487 37.5685 59.1106 37.5634C59.0928 37.5609 59.0751 37.5659 59.0547 37.5761L59.037 37.5837C59.0446 37.5862 59.0014 37.5812 58.9811 37.5786L58.9049 37.571L58.5977 37.5456C57.7776 37.4872 56.955 37.4466 56.0841 37.246C56.5919 37.406 57.2876 37.5278 56.8001 37.5583L55.1751 37.213L55.5433 37.1318C54.7409 36.9413 53.936 36.7636 53.1362 36.5605L53.4308 36.8144C52.2653 36.4691 51.915 36.0704 50.5261 36.0501C49.8913 36.0679 51.595 36.5325 50.3331 36.3269C49.5562 36.0933 48.5837 35.8013 47.5605 35.4915C47.0476 35.3443 46.5195 35.1919 45.999 35.0421C45.4759 34.8898 44.958 34.7425 44.4578 34.6105C44.5974 34.8618 44.0566 34.7247 43.4904 34.6359L43.4676 34.4429C41.2738 34.1839 42.7795 33.8665 40.6187 33.5441L40.8346 33.4654L40.1846 33.699C38.1889 33.5771 39.2477 33.082 37.0108 33.016C37.8537 33.2013 37.3053 33.5085 36.2948 33.1658L36.5994 33.0617C36.0205 32.95 35.8098 32.9728 35.4416 32.8408C35.8047 32.8357 35.6854 32.6376 34.8399 32.4497L35.4569 32.3812C34.9008 32.3507 34.3473 32.3177 33.7913 32.2796C32.6208 31.7693 30.6225 31.4849 30.1884 31.1015C30.1884 31.1015 27.6011 30.2636 26.9282 30.3576C27.4995 30.3423 26.0751 29.8726 26.5397 29.7964C25.811 29.7888 23.7646 29.3775 23.0206 28.9484L23.1781 28.9687C20.2759 27.915 18.0365 27.7779 15.4568 26.7496C15.5178 26.9908 14.1492 26.4601 14.4183 26.8258C13.0066 26.5465 11.7955 26.0412 10.785 25.6654C10.2797 25.4775 9.82267 25.3252 9.41643 25.249C9.2133 25.2109 9.02288 25.1932 8.8426 25.2008C8.75374 25.2033 8.66741 25.2135 8.58362 25.2312C8.543 25.2389 8.50237 25.249 8.46175 25.2617C8.42874 25.2769 8.41351 25.2973 8.38811 25.3176C8.07327 25.2465 7.91839 25.1475 7.84984 25.0637C7.77874 24.9799 7.78128 24.9062 7.69496 24.858L7.85745 24.8605C7.6264 24.8072 7.43597 24.7641 7.27094 24.726C7.10844 24.6777 6.92816 24.6752 6.85453 24.5457C6.78344 24.4289 6.82152 24.2715 6.94848 24.208C7.07543 24.1598 7.22015 24.1191 7.38773 24.0658C7.47152 23.9947 7.39027 23.8957 7.43597 23.7814C7.47152 23.6672 7.66195 23.525 8.12659 23.4184C8.03265 23.5326 8.07835 23.5504 8.16468 23.5326C8.21038 23.525 8.26624 23.5047 8.33226 23.4844C8.44651 23.4463 8.57093 23.4031 8.69534 23.36C8.33479 23.5072 8.24085 23.5986 9.02795 23.4438C9.11936 23.3625 9.27424 23.2787 9.41897 23.2026C9.42912 23.2127 9.46213 23.2102 9.45197 23.233C10.394 22.8572 10.2111 22.8674 9.7592 22.9969C9.77443 22.9664 9.72619 22.9512 9.57639 22.9563C10.6377 22.809 12.349 22.0041 12.5547 22.2149C13.2707 21.9559 13.9334 21.702 14.558 21.4531C15.175 21.2018 15.759 20.9631 16.3302 20.7295C17.4347 20.2903 18.4199 19.9907 19.4914 20.209C19.6945 20.4121 19.1664 20.3588 18.6027 20.3969C19.0673 20.3944 19.5447 20.4883 20.0373 20.6533C19.9966 20.7447 19.7808 20.6914 19.5244 20.628C19.2679 20.5645 18.9709 20.5035 18.7601 20.5061C19.1537 20.6178 19.5498 20.7346 19.9865 20.892C20.4206 21.0494 20.8878 21.2399 21.3804 21.476C21.6267 21.5928 21.8781 21.7198 22.137 21.8569C22.3986 21.994 22.6702 22.1336 22.9368 22.2834C23.47 22.5881 24.0032 22.8953 24.5237 23.2711L25.0595 23.3879L25.1788 23.4818C25.2118 23.4057 25.7653 23.5758 26.1056 23.7307C26.3392 24.0481 25.8948 24.076 27.0095 24.6447C27.8093 25.2541 29.5434 25.866 30.7419 26.356C30.13 26.0183 30.3762 26.0336 30.6708 26.1148C31.2319 26.389 31.4782 26.7014 31.9403 26.8512L31.8921 27.0873C31.7676 26.7851 33.4612 27.59 33.71 27.6052C33.9538 27.915 32.7756 27.3133 32.5776 27.3615C34.8373 28.4406 33.7075 27.8998 35.9723 28.9611C37.2545 29.3699 35.8453 28.6615 36.5106 28.7478C37.5947 29.2074 38.7018 29.5451 39.8748 30.2332L39.5727 29.8675C41.6471 30.642 42.8455 31.1929 44.1302 31.9775C48.0785 33.2242 50.3306 33.6863 51.4478 33.7751C52.5675 33.8691 52.5776 33.6177 52.0749 33.2496C51.5874 32.8763 50.6175 32.3914 49.7695 31.9623C48.9163 31.5484 48.1953 31.2005 48.1953 31.2005C45.3287 29.7787 43.0943 28.8189 40.6924 27.8515C38.3031 26.8766 35.7336 25.8863 32.2678 24.2537Z" fill="#202020"/>
    <path d="M11.7092 37.2535C11.6787 37.2993 11.633 37.3577 11.6152 37.3983C11.6457 37.3729 11.6889 37.3196 11.7092 37.2535Z" fill="#202020"/>
    <path d="M52.7834 38.9807C52.7965 38.9729 52.8122 38.9703 52.8253 38.9624C52.7939 38.9676 52.7861 38.9729 52.7834 38.9807Z" fill="#202020"/>
    <path d="M16.7062 40.7474C16.7037 40.7474 16.6986 40.7474 16.6961 40.7474C16.6809 40.7551 16.6631 40.7576 16.6504 40.7652L16.7062 40.7474Z" fill="#202020"/>
    <path d="M9.18829 35.8952C9.12227 36.3294 9.06133 36.723 9.00547 37.0886C8.93184 37.5253 8.86583 37.9265 8.80235 38.3048C8.74395 39.0106 8.22345 40.0593 9.11465 39.9221C9.69609 40.0491 10.3131 40.171 11.0519 40.2878C11.4201 40.3462 11.8187 40.4046 12.2529 40.4579C12.3621 40.4706 12.4738 40.4858 12.5855 40.4985L12.6719 40.5087L12.715 40.5137L12.7404 40.5163L12.842 40.5214C12.9765 40.5264 13.1187 40.5341 13.2685 40.5391C14.3882 40.6762 15.6045 40.727 16.6988 40.7473C17.2421 40.4757 18.1359 40.8514 18.7656 40.6356L18.9915 40.8286C19.2099 40.7575 19.4613 40.7118 19.6669 40.8184L19.6492 40.8692C19.9741 40.755 20.3245 40.854 20.4845 40.7981L20.4693 40.8489H20.8527L20.7816 40.9174C21.3402 40.8083 21.9064 40.8311 22.4015 40.9251L22.371 40.7093C23.4247 41.0139 23.836 40.5823 24.7856 40.9124L24.7704 40.9632C26.012 40.4554 26.6747 41.4405 27.9518 40.9555C27.7919 41.0165 28.0153 41.0673 28.0001 41.1206C28.579 41.08 29.196 41.0723 29.2213 40.6534C29.6403 40.6737 29.559 40.7981 29.6073 40.9606C29.6124 40.7778 29.9805 40.7143 30.3081 40.7143L30.1557 40.7803L31.0977 40.7524L30.9251 40.3995C31.4202 40.5188 31.0368 40.8286 31.5166 40.76L31.5192 40.4731C32.2047 40.5569 32.5957 40.9987 33.2559 41.2323C36.0285 41.443 39.0246 40.7778 41.5941 41.3339L41.7033 41.5522C41.7465 41.8696 42.4244 41.0952 42.5158 41.3897L42.8179 41.2501C42.9017 41.3085 43.0795 41.372 42.9271 41.4405C43.2039 41.4583 43.2115 41.405 43.4146 41.3136L43.7091 41.5141C44.8035 41.6868 45.7404 41.3212 46.8906 41.4075C47.5812 41.6157 48.579 41.6335 49.5921 41.5725C50.6052 41.509 51.6335 41.3643 52.3851 41.2602C53.4413 41.0317 54.5813 41.2221 55.7315 41.4024C56.8817 41.5878 58.042 41.7553 59.1211 41.4684C59.1922 41.5116 59.3725 41.41 59.3725 41.3719C60.0327 41.377 60.6953 41.3846 61.3606 41.377C61.3606 41.377 61.9649 41.3669 62.7545 41.3161C63.1481 41.2958 63.5949 41.245 64.0342 41.1841C64.476 41.1206 64.9 41.052 65.2859 40.9479C66.0857 40.7169 66.5834 40.4274 66.3904 40.0923C66.2965 39.9247 66.0324 39.7419 65.5805 39.5387C65.1412 39.3509 64.4811 39.0868 63.5746 38.8075L63.6203 38.7364C62.5565 38.6222 61.8735 38.5866 61.1448 38.9599C61.0178 38.5409 60.2637 38.9395 60.0073 38.8024L60.0301 38.7669C59.3801 39.102 58.6743 38.5155 58.0471 38.8151C58.07 38.7821 58.0827 38.6653 58.2299 38.6552C57.7704 38.7161 57.1407 38.8177 57.1026 38.5688C56.0007 38.6374 54.462 38.5308 53.7561 38.9294L53.8044 38.8608C53.4007 39.1274 53.2839 38.8989 52.8319 39.0335C52.8065 39.0005 52.7761 38.9852 52.7811 38.97C52.3419 39.2315 51.4989 39.0081 51.1435 39.1173L51.1206 38.9522L50.2472 38.9878L50.5747 39.0233C50.4579 39.4727 49.9146 38.7415 49.2798 39.0259C48.6882 38.9624 48.0687 39.9501 47.4517 39.7241C47.1546 39.9323 47.7132 39.3839 47.274 39.5413C47.2613 39.3052 47.4796 39.3966 47.3704 39.2061C46.9388 39.3128 46.6646 38.9598 46.1314 39.1122L46.1111 38.9294C45.4128 39.2595 44.806 38.6704 44.3388 38.9827C43.6203 39.1223 43.8666 38.4317 43.1175 38.777L42.8332 38.5257C42.5158 38.48 42.5996 38.8253 42.2492 38.7009C42.2746 38.546 41.8049 38.5688 42.0131 38.4241C41.2183 38.1702 40.383 38.7415 39.3369 38.3048C39.1008 38.6018 38.5752 38.4114 38.4 38.6348C38.3746 38.5028 37.3387 38.5891 37.9404 38.3149C37.9912 38.2921 38.0826 38.2997 38.075 38.3505L38.1512 38.1727C37.5596 37.8198 37.0543 38.3352 36.4627 38.2692C36.6379 38.3327 36.8715 38.3225 36.7115 38.4419L36.1606 38.4038L36.2799 38.2565L35.4598 38.1448L35.569 38.3352C35.1678 38.2261 35.0358 37.9036 34.5762 38.1575C34.3655 38.2997 34.9494 38.4216 34.5229 38.4673C33.9871 38.3226 33.1873 38.1067 32.5043 38.0306C32.5627 38.2438 32.3774 38.2312 32.1844 38.2667L32.1692 38.0839C31.4329 38.3149 31.9153 37.6726 31.1866 37.8478L31.2551 37.7233L31.052 38.0991C30.3868 38.4368 30.7143 37.7056 29.9704 38.1753C30.2573 38.155 30.0897 38.5841 29.7393 38.4901L29.8358 38.3175C29.6403 38.3479 29.5717 38.419 29.4422 38.3784C29.5616 38.287 29.5133 38.1245 29.2264 38.1423L29.427 37.929L28.871 38.2337C28.4596 38.028 27.7868 38.2413 27.6243 37.9849C27.6243 37.9849 26.7305 37.8198 26.5122 38.0839C26.7001 37.9239 26.2075 37.8351 26.3573 37.6421C26.1161 37.8224 25.4204 37.9468 25.1538 37.7309L25.2071 37.7106C24.1991 37.4542 23.4501 37.9188 22.5513 37.6091C22.5817 37.8249 22.1044 37.6802 22.2085 37.9595C21.2462 38.1727 20.52 37.3069 20.1265 38.1245C19.6923 38.1448 19.6288 37.8985 19.4105 37.8401L19.5146 37.8046C18.7072 37.8122 18.4736 37.8046 17.8794 37.7386C17.5748 37.797 17.4986 38.1829 16.9705 38.0509C17.1558 37.9087 16.9349 37.9214 16.7343 37.9061C16.8638 37.8909 16.907 37.8376 16.6556 37.7132C16.615 37.7589 16.5566 37.7843 16.5007 37.8046C16.5007 37.7919 16.4906 37.7817 16.4957 37.7665C16.158 37.797 16.2113 37.8478 16.3636 37.8808C16.3535 37.9036 16.3636 37.9341 16.4093 37.9823C16.0793 37.7614 15.447 37.9087 15.4293 37.6395C14.9291 37.6218 14.4949 37.6624 14.0785 37.7132C13.8703 37.7386 13.6672 37.7614 13.464 37.7843C13.3625 37.7944 13.2609 37.802 13.1568 37.8122C13.0705 37.8173 12.9842 37.8224 12.8978 37.8274C12.8775 37.7563 12.9105 37.6954 12.9613 37.6472C12.9867 37.6243 13.0172 37.604 13.0502 37.5862C13.0984 37.571 13.1619 37.5583 13.2228 37.5507L12.9791 37.5481H12.7988C12.8293 37.4517 12.8826 37.4313 12.9435 37.4313C13.0095 37.4313 13.0476 37.4491 13.1644 37.4415C13.0629 37.3933 13.0375 37.3628 12.9943 37.3425C12.9512 37.3222 12.908 37.3146 12.8623 37.3146C12.7683 37.312 12.6617 37.3374 12.5373 37.3628C12.3012 37.4136 11.9685 37.4567 11.8797 37.2968C11.7959 37.3374 11.7096 37.378 11.6182 37.4187L11.6156 37.3933C11.5064 37.4821 11.4074 37.4593 11.3846 37.4009C11.5775 37.213 11.8137 37.1216 11.8213 36.954C12.0117 36.7331 11.7705 36.6646 11.7146 36.304C11.6867 36.4284 11.6562 36.4208 11.6207 36.4208C11.5851 36.4132 11.5496 36.4005 11.5242 36.3396C11.542 36.1339 11.7248 36.0349 11.6689 35.8673L11.9025 35.8724C11.6765 35.9282 11.7273 35.3112 11.641 35.2249C11.8238 35.1259 11.7527 35.5601 11.8771 35.6235C11.9457 34.7984 11.9127 35.2122 11.9812 34.387C11.8568 33.93 11.7553 34.4429 11.575 34.2118C11.5724 33.8208 11.4531 33.4247 11.641 32.9956L11.4201 33.115C11.3414 32.371 11.4125 31.9369 11.674 31.4697C10.6 25.866 9.5209 30.0783 9.5209 30.0783C8.83028 32.1705 9.30762 33.3359 9.18829 35.8952Z" fill="#202020"/>
</svg>
