<svg width="70" height="48" viewBox="0 0 70 48" fill="none" xmlns="http://www.w3.org/2000/svg">
    <path d="M41 48C52.0457 48 61 39.0457 61 28C61 16.9543 52.0457 8 41 8C29.9543 8 21 16.9543 21 28C21 39.0457 29.9543 48 41 48Z" fill="#FF6682"/>
    <path d="M36.4622 32.7483L20.2563 21.771L21.9622 16.9983L33.4769 24.1574L43.2858 13.1801L49.2563 11.7483V16.0437L36.4622 32.7483Z" fill="white"/>
    <path d="M24.0597 19.7911L23.9222 19.6256C23.907 19.6613 23.935 19.7147 24.0597 19.7911Z" fill="#202020"/>
    <path d="M45.7615 14.0093C45.751 14.0198 45.7354 14.0276 45.7275 14.0407C45.7536 14.025 45.7615 14.0172 45.7615 14.0093Z" fill="#202020"/>
    <path d="M20.1137 22.688C20.1086 22.6829 20.1036 22.6778 20.0985 22.6727C20.0679 22.6524 20.0348 22.6294 20.0068 22.6091L20.1137 22.688Z" fill="#202020"/>
    <path d="M27.5634 18.7016C26.7585 18.1938 26.1619 17.785 25.6084 17.4168C25.4662 17.3229 25.3265 17.2315 25.1894 17.1426L24.9787 17.0106C24.9558 16.9954 24.8771 16.9522 24.8162 16.9192L24.6257 16.8176C24.1154 16.546 23.5771 16.2997 23.0008 16.0889C22.7189 16.0026 22.4269 15.9188 22.1426 15.896C21.8556 15.8604 21.589 15.8782 21.3021 15.9163C20.741 16.0051 20.0986 16.2463 19.5451 16.7745C18.7021 17.4575 18.2147 18.6305 18.3264 19.7096C18.3518 19.9762 18.3975 20.2402 18.4914 20.4865C18.5143 20.55 18.527 20.6109 18.56 20.6744L18.6895 20.8623L18.9459 21.2381C19.116 21.4844 19.2836 21.7307 19.4486 21.9744L19.5096 22.0658C19.5324 22.0963 19.5654 22.1242 19.5908 22.1547L19.7584 22.3299C19.8727 22.4467 19.9742 22.5635 20.0961 22.6777C20.2383 22.7666 20.3779 22.8656 20.5201 22.9774C20.5557 23.0053 20.5912 23.0332 20.6267 23.0637L20.6953 23.1145C20.7385 23.1475 20.7791 23.1805 20.8223 23.216C20.9924 23.3557 21.1676 23.5156 21.3402 23.6832C21.6855 24.0209 22.0512 24.351 22.4345 24.5135L22.5488 24.8486C22.8154 24.9553 23.0972 25.1102 23.247 25.359L23.2013 25.3869C23.5949 25.5469 23.9047 25.8846 24.1052 25.9557L24.0595 25.9861L24.4582 26.2705L24.3464 26.2756C24.9914 26.5904 25.5703 27.017 26.0501 27.4359L26.1314 27.2328C27.0962 28.2179 27.7589 28.124 28.6197 29.0304L28.5765 29.0634C29.3788 29.2437 29.8384 29.65 30.3157 30.0511C30.788 30.4574 31.278 30.8636 32.1032 31.0236C31.8976 30.9855 32.1235 31.1607 32.0855 31.1988C32.7558 31.5085 33.4718 31.8437 33.6749 31.4755C34.1421 31.7294 34.0024 31.7904 33.9897 31.9681C34.071 31.8031 34.5204 31.9427 34.9013 32.1179L34.6956 32.0951C34.8733 32.1738 35.0714 32.2576 35.3024 32.3414C35.4065 32.3794 35.5665 32.4328 35.7087 32.4683C35.8534 32.5064 36.0007 32.5343 36.1479 32.5521C36.0464 32.4201 35.96 32.283 35.8864 32.1433C36.2825 32.2931 36.3409 32.3794 36.3866 32.4708C36.4348 32.5496 36.4882 32.6409 36.935 32.5495L36.8868 32.2652C37.1813 32.2372 37.4428 32.1865 37.6993 32.123C37.8237 32.0925 37.9557 32.0544 38.0776 32.0164C38.1893 31.9833 38.2985 31.9503 38.4077 31.9173C38.8342 31.7828 39.2481 31.6203 39.6213 31.3994C40.9391 30.206 42.0842 28.7461 43.1532 27.2937C44.2272 25.8389 45.2225 24.3891 46.3447 23.1602L46.6037 23.1576C46.9033 23.2744 46.7154 22.142 47.0201 22.1928L47.1014 21.7916C47.2055 21.7307 47.3781 21.5682 47.3375 21.7688C47.5355 21.4742 47.4975 21.4412 47.5457 21.1721L47.9088 20.9436C48.7543 19.8061 48.9904 18.5772 49.7039 17.2924C49.8461 17.1147 49.9832 16.909 50.1203 16.6805C50.1888 16.5663 50.2574 16.4469 50.326 16.3225C50.3539 16.2743 50.4072 16.1702 50.4504 16.0711C50.4935 15.9721 50.5342 15.868 50.5697 15.7639C50.7094 15.3653 50.8033 14.7965 50.7576 14.2659C50.7398 13.9967 50.684 13.7301 50.6027 13.4737C50.5672 13.3442 50.5189 13.2173 50.4605 13.0954C50.4097 12.971 50.3463 12.8517 50.2752 12.7374C49.9984 12.2778 49.5972 11.8944 49.1275 11.6583C48.6603 11.4171 48.1424 11.3054 47.6473 11.2876C47.109 11.2698 46.7815 11.3384 46.4387 11.4145C46.1289 11.5059 45.8369 11.5796 45.5805 11.6786C44.867 11.9808 44.1637 12.3007 43.4578 12.6485C42.7494 12.9964 42.0664 13.4051 41.4139 13.8546C40.7614 14.304 40.1545 14.8118 39.6366 15.3628C39.1161 15.9137 38.6819 16.5078 38.3798 17.1502C38.2909 17.1959 38.2325 17.4448 38.263 17.4651C38.0116 17.8028 37.7628 18.1405 37.519 18.4782C37.2778 18.8133 37.0493 19.1231 36.8081 19.443C36.8081 19.443 36.379 20.0295 35.8179 20.7989C35.2542 21.5733 34.5458 22.5787 34.1065 23.4293C33.6647 24.2799 33.4896 24.9502 33.8729 25.0213C34.264 25.0949 35.178 24.5744 37.0721 23.216L37.0899 23.3049C38.0446 22.3553 38.6159 21.6773 38.8876 20.7049C39.1034 20.7684 39.2786 20.5449 39.4335 20.2783C39.5909 20.0092 39.7127 19.7274 39.86 19.636L39.8727 19.6791C40.0708 18.826 41.0483 18.5036 41.287 17.7444C41.2946 17.7876 41.3758 17.8739 41.2717 18.011C41.5663 17.5489 41.9827 16.9293 42.1934 17.0665C42.592 16.5739 43.1303 16.0559 43.628 15.6167C43.8742 15.3882 44.1205 15.1977 44.3237 14.9971C44.5369 14.8219 44.7045 14.6213 44.8315 14.4588L44.8162 14.5427C44.9457 14.3319 45.0701 14.2532 45.2047 14.1999C45.3443 14.1542 45.4891 14.1186 45.6922 13.9663C45.7277 13.9891 45.7658 13.9967 45.7633 14.0094C46.1137 13.5956 47.1369 13.6464 47.3172 13.5803L47.3121 13.7454C47.4746 13.7454 47.6473 13.7682 47.7945 13.852C47.7488 13.8063 47.698 13.7682 47.6422 13.7352C47.7742 13.5346 47.8707 13.6515 47.924 13.8139C47.9799 13.9917 47.9697 14.1618 48.1525 14.2837C48.1703 14.4563 48.4191 14.5934 48.5816 14.9083C48.6603 15.0682 48.7086 15.2561 48.6984 15.4339C48.6832 15.6192 48.6146 15.8096 48.4851 15.9543C48.5207 16.3733 48.31 15.5202 48.2262 16.0788C48.0053 15.995 48.2008 15.7868 47.9723 15.8325C47.8504 16.3631 47.3807 16.5053 47.2334 17.1579L47.0582 17.0969C47.0125 17.5489 46.7688 17.8739 46.5453 18.1658C46.3143 18.4553 46.0984 18.7067 46.0984 19.0317C45.7887 19.8645 45.3393 19.2627 45.1793 20.2225L44.7832 20.3901C44.5446 20.6947 44.8975 20.7887 44.5623 21.0857C44.4455 20.9791 44.1612 21.4692 44.1739 21.1797C43.4502 21.85 43.3588 23.0078 42.2619 23.7848C42.3356 24.1885 41.8049 24.5897 41.8506 24.8893C41.7262 24.8359 41.028 25.882 41.2565 25.1381C41.2768 25.0746 41.3479 24.9933 41.3834 25.0314L41.2971 24.8512C40.9416 25.0289 40.7665 25.3082 40.6192 25.6103C40.4745 25.915 40.35 26.2426 40.0911 26.4914C40.2764 26.3721 40.4516 26.1486 40.4211 26.3721L39.9616 26.857L39.9387 26.6513C39.7001 26.8824 39.4538 27.1033 39.2075 27.3267L39.4385 27.3547C39.0374 27.6492 38.6921 27.5527 38.5042 28.1291C38.4381 28.4109 39.0069 27.9742 38.6921 28.383C38.4204 28.5709 38.0776 28.807 37.7196 29.0558C37.5444 29.1777 37.3565 29.3224 37.2016 29.424C37.0442 29.5306 36.9071 29.6195 36.8005 29.6779C36.8817 29.749 36.8944 29.8023 36.8741 29.8556C36.8639 29.8836 36.8462 29.9039 36.8284 29.9267C36.8182 29.9369 36.8081 29.9496 36.7979 29.9597C36.7954 29.9648 36.7979 29.9699 36.7928 29.98L36.7014 29.8201C36.671 29.98 36.6024 29.8861 36.5796 29.7795C36.544 29.6754 36.544 29.5636 36.5059 29.6601C36.5136 29.6169 36.5186 29.5763 36.5237 29.5332C36.511 29.6601 36.4805 29.7871 36.4399 29.9089C36.3739 29.9851 36.3434 29.9978 36.2749 29.9572C36.2216 29.9216 36.1987 29.8658 36.1708 29.8099C36.12 29.7008 36.0337 29.589 35.5335 29.617C35.8559 29.7439 35.5005 30.0511 35.1526 29.7896L35.3304 29.6804C35.1018 29.6093 34.9977 29.6398 34.8759 29.5332C35.0434 29.5154 35.0587 29.3402 34.7388 29.2031L35.046 29.1142L34.3147 29.0964C33.9593 28.6877 33.1366 28.5049 33.0808 28.1799C33.0808 28.1799 32.1972 27.5273 31.8442 27.6238C32.121 27.5933 31.6386 27.2226 31.8899 27.1439C31.5472 27.1668 30.7525 26.8469 30.5798 26.4939L30.6458 26.5092C29.7241 25.6611 28.7111 25.5773 27.9544 24.7191C27.8706 24.9223 27.4619 24.4855 27.4187 24.7877C26.8753 24.5516 26.5326 24.125 26.233 23.8076C25.9334 23.4877 25.6667 23.282 25.2377 23.4801C24.8035 23.1779 24.8847 22.9291 24.7045 22.726L24.8289 22.7717C24.4252 22.4898 24.1865 22.2867 23.9656 22.109C23.7447 21.9313 23.5619 21.7586 23.308 21.5047C23.148 21.4108 22.9906 21.426 22.823 21.4006C22.7367 21.3879 22.6504 21.3625 22.5615 21.3067C22.5386 21.294 22.5158 21.2762 22.4929 21.261C22.4752 21.2457 22.4574 21.2305 22.4371 21.2152C22.4092 21.1899 22.3838 21.1594 22.3635 21.1188C22.5615 21.0984 22.4472 21.0248 22.3609 20.936C22.4422 20.9842 22.4955 20.9537 22.4955 20.809C22.4371 20.8192 22.3863 20.809 22.3406 20.7938C22.3533 20.7887 22.3584 20.7811 22.3761 20.776C22.1959 20.6592 22.1553 20.6871 22.1984 20.7684C22.1705 20.7734 22.1426 20.7887 22.1197 20.8268C22.1476 20.7049 22.0486 20.6034 21.9699 20.5069C21.9344 20.4586 21.9064 20.4104 21.9115 20.3774C21.9217 20.3418 21.9623 20.3215 22.0562 20.3266C21.8937 20.0879 21.8023 19.7756 21.8201 19.4659C21.8353 19.3161 21.8734 19.1637 21.9547 19.0368C22.0359 18.9174 22.1527 18.8108 22.3 18.7701C22.3888 18.8539 22.4142 18.9428 22.4117 19.0165C22.4092 19.0545 22.4015 19.0901 22.3863 19.1205C22.3736 19.1561 22.3558 19.1891 22.333 19.2145C22.4295 19.151 22.5412 19.1231 22.6554 19.1129C22.7113 19.2399 22.6808 19.2754 22.6301 19.283C22.5793 19.2983 22.498 19.2907 22.4676 19.3338C22.6783 19.4329 22.7748 19.4354 22.8738 19.4278C22.9703 19.4151 23.0693 19.3795 23.2039 19.3846C23.3486 19.3897 23.5365 19.4582 23.6457 19.6283C23.6634 19.608 23.7193 19.6055 23.7574 19.5953L23.8843 19.5699L23.925 19.6207C23.958 19.5446 24.2093 19.5446 24.3515 19.5903C24.3972 19.8112 24.1586 19.9356 24.6029 20.1616C24.872 20.4942 25.6312 20.6338 26.1314 20.8192C25.9003 20.6516 26.0273 20.616 26.1644 20.6237C26.3878 20.7455 26.4259 20.9664 26.6316 21.002L26.5351 21.2152C26.5605 20.9766 27.2257 21.3498 27.3527 21.3194C27.3882 21.5402 26.9388 21.2432 26.8195 21.3219C27.7005 21.8272 27.2613 21.5707 28.1347 22.0861C28.6882 22.2233 28.1677 21.8475 28.4952 21.8119C28.9243 22.0278 29.4093 22.1445 29.7952 22.566L29.7622 22.2994C30.6077 22.6625 31.0444 22.9951 31.4177 23.5156C33.0249 24.1529 33.9669 24.5109 34.5153 24.6354C35.0638 24.7496 35.1882 24.5541 35.145 24.2545C35.1095 24.0971 35.0181 23.9041 34.8987 23.7061C34.7819 23.508 34.6372 23.3227 34.4975 23.1475C34.2183 22.8073 33.9593 22.5559 33.9593 22.5559C32.969 21.5022 32.0702 20.941 31.0825 20.4205C30.0898 19.9127 29.0056 19.4506 27.5634 18.7016Z" fill="#202020"/>
    <path d="M29.094 5.46294L28.7056 5.42993C28.7183 5.47056 28.8173 5.49087 29.094 5.46294Z" fill="#202020"/>
    <path d="M54.4972 28.5862C54.4997 28.5582 54.5074 28.5251 54.5074 28.4997C54.4921 28.5582 54.4921 28.5786 54.4972 28.5862Z" fill="#202020"/>
    <path d="M14.0225 4.65793C14.0301 4.65793 14.0377 4.65539 14.0428 4.65539C14.0732 4.6427 14.1113 4.63254 14.1367 4.61984L14.0225 4.65793Z" fill="#202020"/>
    <path d="M33.3117 2.19534C28.2438 2.79963 26.8473 2.59142 21.6321 3.48516C19.1286 3.80254 16.4753 4.26718 14.0404 4.65566C13.9007 4.71406 13.7459 4.76483 13.5808 4.81054C13.497 4.83339 13.4107 4.8537 13.3218 4.87401C13.2076 4.8994 13.0908 4.92735 12.9714 4.95274C12.4662 5.05938 11.9279 5.2371 11.4099 5.48085C10.8894 5.71952 10.4045 6.05975 9.99315 6.43807C9.57675 6.81639 9.26952 7.26833 9.05878 7.69489C8.88867 7.87516 8.6957 8.05289 8.54589 8.26363C8.32754 8.91363 8.18535 9.67535 8.0457 10.3406L8 10.2949C8.01777 10.5488 8.03047 10.8103 8.05586 11.0617C8.07109 11.1861 8.08633 11.3105 8.10156 11.4324C8.10918 11.4882 8.1168 11.5644 8.12187 11.6025C8.12949 11.6456 8.13457 11.6863 8.14219 11.7294C8.19297 12.0595 8.23105 12.3464 8.28945 12.5191L8.23359 12.4962L8.37578 13.3519L8.28183 13.2148C8.59414 14.4259 8.78203 15.6929 8.87343 16.8202L9.07148 16.6984C9.16796 19.1231 9.72909 19.9356 9.75194 22.1319L9.69608 22.1091C9.93221 22.7717 10.0617 23.376 10.143 23.9524C10.2242 24.5288 10.242 25.0645 10.2978 25.6637C10.3334 26.2502 10.4248 26.8368 10.5543 27.4563C10.6355 27.7635 10.7295 28.0758 10.8463 28.4008C10.958 28.7258 11.1256 29.0483 11.3033 29.386C11.123 29.0508 11.25 29.5738 11.1916 29.5637C11.7095 30.8662 12.3824 32.1992 12.7759 32.0215C13.2203 32.9127 13.0273 32.8086 12.9486 32.999C13.0273 32.9533 13.1923 33.1107 13.3853 33.3621C13.4818 33.4865 13.5859 33.6363 13.69 33.7963C13.8017 33.9512 13.916 34.1162 14.0226 34.2787L13.7687 34.0146C13.982 34.3219 14.18 34.6367 14.4035 34.9363C14.6294 35.2334 14.8453 35.5381 15.0814 35.825C15.0814 35.6422 15.0916 35.4543 15.1017 35.2689C15.7212 36.2617 14.9392 35.7641 15.7009 36.6045L15.9142 36.4115C16.1681 36.7264 16.3738 37.0259 16.5591 37.3179C16.7546 37.6023 16.9273 37.8791 17.0974 38.1634C17.4503 38.7169 17.7982 39.2832 18.3441 39.8849C19.5933 40.997 21.0177 41.9644 22.5386 42.7439C24.062 43.5234 25.6768 44.1251 27.3145 44.5593C30.6 45.4327 33.9313 45.5978 37.0289 45.4708L37.3285 45.6536C37.4098 45.811 37.8236 45.6231 38.2426 45.4327C38.664 45.2499 39.0805 45.0265 39.2277 45.1433L39.898 44.8462C40.1062 44.8488 40.5353 44.7929 40.2052 44.9579C40.8527 44.7878 40.8603 44.7497 41.2894 44.5085L42.0334 44.4704C43.3105 44.1023 44.4226 43.5488 45.4865 42.9115C46.5452 42.2564 47.5609 41.5251 48.6831 40.7152C49.0411 40.4994 49.4321 40.2455 49.8231 39.9332C50.2269 39.6361 50.6229 39.2755 51.0343 38.8947C51.8391 38.1177 52.6466 37.2011 53.355 36.2033C54.0608 35.2029 54.6778 34.1365 55.1831 33.1057C55.6731 32.0672 56.059 31.0744 56.3307 30.2188C56.6735 29.0026 57.0417 27.7584 57.3616 26.461C57.684 25.1661 57.9354 23.8178 58.0776 22.4442C58.2172 21.0706 58.2325 19.6665 58.0827 18.303C57.9379 17.0259 57.7399 15.7742 57.4377 14.5783C57.4606 14.4132 57.3032 14.0197 57.2676 14.0273L56.6913 9.58141C56.6913 9.58141 56.511 8.23572 56.2342 6.47616C56.1631 6.03691 56.087 5.57225 56.0108 5.09491L55.9803 4.91464L55.9346 4.68867C55.8991 4.53378 55.8762 4.37637 55.8229 4.22403C55.7721 4.07169 55.7264 3.91934 55.6706 3.76953L55.4751 3.33028C54.8987 2.17248 53.8958 1.30411 52.9055 0.9004C51.9153 0.483997 50.9911 0.48654 50.4401 0.61857C50.1608 0.676968 49.9704 0.778546 49.8689 0.857256C49.7698 0.941045 49.7724 1.02736 49.8511 1.10354C50.0212 1.27873 50.6103 1.35999 51.4634 1.81448C51.8798 2.04807 52.3546 2.38574 52.7507 2.90117C52.9538 3.15253 53.1264 3.45217 53.2559 3.78732C53.3854 4.11994 53.4768 4.48554 53.4895 4.87909L53.4007 4.81816C53.4641 5.1914 53.4946 5.84139 53.5505 6.3365C53.6012 6.85193 53.6571 7.3242 53.7257 7.77107C53.8653 8.66481 54.0532 9.45699 54.3426 10.2695C53.9593 10.5919 54.5788 12.2728 54.5229 12.8593L54.4823 12.8111C55.013 14.2482 54.6397 15.9036 55.1298 17.2925C55.0891 17.2417 54.9698 17.2265 54.9165 16.8989C55.0155 17.4169 55.1374 18.0263 55.2085 18.5239C55.2745 19.0165 55.2669 19.3567 55.1526 19.4126C55.3151 20.5755 55.3354 21.9846 55.2592 23.2846C55.2288 23.9346 55.1628 24.5567 55.1247 25.1153C55.0637 25.6714 55.046 26.169 55.0409 26.56L54.9977 26.4432C55.0231 26.8952 54.9749 27.177 54.8784 27.4563C54.7819 27.7356 54.6956 28.0301 54.5915 28.51C54.5432 28.5506 54.5051 28.609 54.495 28.5938C54.4721 29.0889 54.2259 29.7465 53.9466 30.3609C53.7993 30.6656 53.6622 30.9653 53.5251 31.2293C53.388 31.4908 53.2762 31.7244 53.2102 31.9098L53.0427 31.8767C52.7481 32.4328 52.4384 32.9863 52.0981 33.5195L52.512 32.9432C52.6364 33.1641 52.38 33.4332 52.0321 33.8039C51.8493 33.9816 51.6411 34.1847 51.4456 34.4234C51.2526 34.6646 51.0444 34.9211 50.8921 35.241C50.463 35.7209 50.2142 36.3658 49.8942 36.998C49.7444 37.3205 49.5642 37.6252 49.3585 37.9045C49.1554 38.1914 48.9066 38.4326 48.6069 38.6154C48.2464 39.207 48.8202 37.9781 48.1855 38.7398C48.0128 38.5798 48.4343 38.331 48.1245 38.3488C47.8046 38.7043 47.4466 38.882 47.0937 39.0978C46.9109 39.1994 46.7204 39.2984 46.5249 39.4279C46.3294 39.5574 46.1263 39.7123 45.9003 39.8976L45.7607 39.7681C45.489 40.0423 45.1945 40.2632 44.8822 40.4308C44.5749 40.606 44.2652 40.7482 43.9605 40.8624C43.3587 41.1113 42.8001 41.2738 42.4041 41.6267C41.7058 41.972 41.4164 41.9542 41.1269 41.9238C40.9822 41.9136 40.84 41.9085 40.6445 41.9593C40.548 41.9847 40.4363 42.0253 40.3068 42.0837C40.1748 42.137 40.0199 42.2081 39.8396 42.3021C39.6162 42.2767 39.3978 42.2538 39.1795 42.2234C38.5066 42.3249 38.7707 42.6347 37.9988 42.6576C38.0141 42.4951 37.0365 42.6906 37.4478 42.4722C37.0213 42.4925 36.5947 42.5128 36.1631 42.5814C35.7289 42.6372 35.2846 42.6956 34.8225 42.754C33.8983 42.8429 32.8801 42.8632 31.7908 42.5382C31.5344 42.6601 31.1282 42.6296 30.7397 42.5992C30.3512 42.5535 29.9831 42.49 29.7799 42.5687C29.7622 42.5078 29.2086 42.3656 28.8252 42.2462C28.6323 42.1904 28.485 42.1244 28.4647 42.0863C28.4469 42.0431 28.551 42.0406 28.8786 42.0406C28.9903 42.0431 29.1756 42.0913 29.1502 42.1396L29.3381 42C28.7618 41.6953 28.2108 41.5734 27.637 41.4845C27.3551 41.4287 27.0682 41.3829 26.7762 41.3195C26.4893 41.2458 26.2024 41.1519 25.9155 41.0249C26.238 41.2179 26.7077 41.3931 26.3522 41.3829C25.9891 41.2306 25.6286 41.0757 25.2782 40.898L25.5626 40.8624C25.3061 40.7253 25.0446 40.5958 24.7907 40.4537L24.0391 40.0144L24.1636 40.2911C23.8005 40.0576 23.6126 39.8037 23.3815 39.6082C23.1479 39.4127 22.8991 39.2248 22.4218 39.0775C21.9698 38.9632 22.9677 39.73 22.1704 39.2857C21.2767 38.5367 20.0503 37.3256 19.088 36.2439C19.0322 36.4902 18.7681 36.2008 18.4558 35.9367L18.5573 35.7793C17.9454 35.2918 17.9378 35.109 17.9251 34.9363C17.9124 34.7637 17.9226 34.5834 17.3742 34.0502L17.557 34.0781C17.3742 34.0502 17.1863 34.0248 17.0085 33.9867C16.4626 33.5271 16.4246 33.3189 16.3839 33.1006C16.3611 32.9914 16.3331 32.8822 16.2341 32.7375C16.1351 32.5902 15.9574 32.41 15.6628 32.1357C15.9904 32.6512 15.4597 32.5953 15.1474 31.8895L15.3988 31.9707C15.155 31.628 15.0332 31.5315 14.9392 31.2674C15.1373 31.4477 15.2287 31.2674 14.924 30.7367L15.3074 31.0033C15.1753 30.8561 15.0332 30.7139 14.9062 30.5615L14.5228 30.0994C14.5 29.9877 14.4669 29.8709 14.4263 29.7516C14.3908 29.6322 14.3527 29.5053 14.307 29.3809C14.2232 29.1295 14.1115 28.8807 14.0277 28.6395C13.8677 28.1545 13.7179 27.733 13.7992 27.5198C13.7992 27.5198 13.7738 27.403 13.7332 27.2227C13.6951 27.0399 13.6214 26.7987 13.5656 26.5397C13.5072 26.2807 13.4361 26.0116 13.3599 25.7805C13.2812 25.5495 13.2152 25.3565 13.1263 25.26C13.3574 25.6079 13.2482 24.5618 13.4945 24.8284C13.3574 24.6202 13.2 24.087 13.0882 23.5665C12.9765 23.0383 12.9131 22.4924 12.9689 22.1674L13.0095 22.2817C12.8953 19.9483 12.1742 18.3817 12.1361 16.2794C11.9381 16.4038 11.9 15.2943 11.6689 15.6015C11.3871 14.5503 11.3871 13.555 11.3414 12.7425C11.3185 12.3363 11.283 11.9732 11.1967 11.6736C11.1535 11.5238 11.0951 11.3867 11.0189 11.2699C11.0012 11.2394 10.9808 11.2115 10.958 11.1835C10.9377 11.1607 10.9199 11.1455 10.8971 11.1277C10.8539 11.0921 10.8056 11.0591 10.7498 11.0261C10.7117 10.8433 10.7422 10.6961 10.7523 10.5742C10.7803 10.4549 10.8234 10.3634 10.8615 10.2847C10.9605 10.1324 11.0418 10.0283 11.1256 9.87341C11.123 9.92927 11.1154 9.98259 11.1179 10.0385C11.2678 9.43416 11.509 9.07106 11.7603 8.78923C12.0193 8.51247 12.2935 8.29666 12.7404 8.09353C12.8445 8.02752 12.9232 7.95643 12.9918 7.87772C13.0654 7.80409 13.1339 7.73299 13.2228 7.65428C13.3091 7.57303 13.4209 7.52225 13.5681 7.46386C13.7332 7.41054 13.982 7.37243 14.2841 7.35212C13.9134 7.56032 14.406 7.46386 14.858 7.40038C14.571 7.46386 14.4898 7.53495 15.0992 7.55526C15.1753 7.49686 15.3023 7.4486 15.4191 7.40797C15.4267 7.42067 15.4496 7.42575 15.4419 7.44352C16.191 7.28356 16.0513 7.25309 15.6984 7.28102C15.7136 7.25563 15.6781 7.23026 15.5638 7.20233C16.3763 7.29119 17.7499 6.8824 17.882 7.13377C20.1468 6.75545 21.7362 6.25525 23.6126 5.88709C23.8436 5.99373 23.4196 6.17655 22.8763 6.30604L24.2118 6.06738C24.227 6.26543 23.4552 6.28828 23.0489 6.38476C24.6917 6.47617 26.3014 5.6078 28.2159 5.63573L28.584 5.42754L28.6983 5.4377C28.6805 5.35645 29.0868 5.18634 29.361 5.12032C29.6504 5.25235 29.3965 5.51641 30.3233 5.37423C31.0799 5.43516 32.3977 5.00096 33.3447 4.77498C32.8217 4.81815 32.9766 4.70138 33.1924 4.60997C33.6545 4.53888 33.9465 4.67091 34.2943 4.54904L34.3705 4.77244C34.1572 4.58202 35.5512 4.36875 35.7086 4.25196C35.9955 4.38399 35.0078 4.49826 34.9113 4.64298C36.7699 4.36115 35.8406 4.50332 37.6967 4.22149C38.6666 3.90919 37.4859 4.02851 37.9328 3.76191C38.8037 3.59433 39.6365 3.31503 40.6623 3.31249L40.3144 3.15256C41.9394 2.76409 42.9271 2.64982 44.0646 2.70061C56.0997 -0.676324 46.332 0.0701585 46.332 0.0701585C41.4494 0.291055 39.0398 1.23304 33.3117 2.19534Z" fill="#202020"/>
</svg>
