<svg width="24" height="24" viewBox="0 0 24 24" fill="none" xmlns="http://www.w3.org/2000/svg">
<path d="M21.5795 4.69888C20.6566 3.48573 19.5247 2.48734 18.2535 1.72695C18.1954 1.69212 18.12 1.70373 18.0677 1.75016C17.9981 1.81982 18.0155 1.93011 18.0909 1.98235C20.4476 3.50895 22.2644 5.97008 22.6882 9.25547C23.5589 15.9307 18.8978 21.5031 12.3386 21.5205C5.12934 21.5437 0.74109 15.1703 1.89039 9.44702C1.94844 9.1626 1.91942 8.88398 2.01229 8.61116C2.06453 7.60697 2.44763 6.02813 3.27188 4.41446C2.44183 4.844 1.3854 6.20227 0.862985 7.45605C0.108391 9.26708 -0.152814 11.4322 0.0851731 13.4928C0.102587 13.6495 0.120001 13.8004 0.137414 13.9572C1.10678 19.634 6.05227 23.9526 12.002 23.941C18.6308 23.9294 24.029 18.4905 23.9942 11.8559C23.9826 9.17421 23.0829 6.69566 21.5795 4.69888Z" fill="url(#paint0_radial)"/>
<path opacity="0.67" d="M21.5795 4.69888C20.6566 3.48573 19.5247 2.48734 18.2535 1.72695C18.1954 1.69212 18.12 1.70373 18.0677 1.75016C17.9981 1.81982 18.0155 1.93011 18.0909 1.98235C20.4476 3.50895 22.2644 5.97008 22.6882 9.25547C23.5589 15.9307 18.8978 21.5031 12.3386 21.5205C5.12934 21.5437 0.74109 15.1703 1.89039 9.44702C1.94844 9.1626 1.91942 8.88398 2.01229 8.61116C2.06453 7.60697 2.44763 6.02813 3.27188 4.41446C2.44183 4.844 1.3854 6.20227 0.862985 7.45605C0.108391 9.26708 -0.152814 11.4322 0.0851731 13.4928C0.102587 13.6495 0.120001 13.8004 0.137414 13.9572C1.10678 19.634 6.05227 23.9526 12.002 23.941C18.6308 23.9294 24.029 18.4905 23.9942 11.8559C23.9826 9.17421 23.0829 6.69566 21.5795 4.69888Z" fill="url(#paint1_radial)"/>
<path d="M21.5795 4.69888C20.6566 3.48573 19.5247 2.48734 18.2535 1.72695C18.1954 1.69212 18.12 1.70373 18.0677 1.75016C17.9981 1.81982 18.0155 1.93011 18.0909 1.98235C20.4476 3.50895 22.2644 5.97008 22.6882 9.25547C23.5589 15.9307 18.8978 21.5031 12.3386 21.5205C5.12934 21.5437 0.74109 15.1703 1.89039 9.44702C1.94844 9.1626 1.91942 8.88398 2.01229 8.61116C2.06453 7.60697 2.44763 6.02813 3.27188 4.41446C2.44183 4.844 1.3854 6.20227 0.862985 7.45605C0.108391 9.26708 -0.152814 11.4322 0.0851731 13.4928C0.102587 13.6495 0.120001 13.8004 0.137414 13.9572C1.10678 19.634 6.05227 23.9526 12.002 23.941C18.6308 23.9294 24.029 18.4905 23.9942 11.8559C23.9826 9.17421 23.0829 6.69566 21.5795 4.69888Z" fill="url(#paint2_radial)"/>
<path d="M21.5795 4.69888C20.6566 3.48573 19.5247 2.48734 18.2535 1.72695C18.1954 1.69212 18.12 1.70373 18.0677 1.75016C17.9981 1.81982 18.0155 1.93011 18.0909 1.98235C20.4476 3.50895 22.2644 5.97008 22.6882 9.25547C23.5589 15.9307 18.8978 21.5031 12.3386 21.5205C5.12934 21.5437 0.74109 15.1703 1.89039 9.44702C1.94844 9.1626 1.91942 8.88398 2.01229 8.61116C2.06453 7.60697 2.44763 6.02813 3.27188 4.41446C2.44183 4.844 1.3854 6.20227 0.862985 7.45605C0.108391 9.26708 -0.152814 11.4322 0.0851731 13.4928C0.102587 13.6495 0.120001 13.8004 0.137414 13.9572C1.10678 19.634 6.05227 23.9526 12.002 23.941C18.6308 23.9294 24.029 18.4905 23.9942 11.8559C23.9826 9.17421 23.0829 6.69566 21.5795 4.69888Z" fill="url(#paint3_radial)"/>
<path d="M21.5795 4.69888C20.6566 3.48573 19.5247 2.48734 18.2535 1.72695C18.1954 1.69212 18.12 1.70373 18.0677 1.75016C17.9981 1.81982 18.0155 1.93011 18.0909 1.98235C20.4476 3.50895 22.2644 5.97008 22.6882 9.25547C23.5589 15.9307 18.8978 21.5031 12.3386 21.5205C5.12934 21.5437 0.74109 15.1703 1.89039 9.44702C1.94844 9.1626 1.91942 8.88398 2.01229 8.61116C2.06453 7.60697 2.44763 6.02813 3.27188 4.41446C2.44183 4.844 1.3854 6.20227 0.862985 7.45605C0.108391 9.26708 -0.152814 11.4322 0.0851731 13.4928C0.102587 13.6495 0.120001 13.8004 0.137414 13.9572C1.10678 19.634 6.05227 23.9526 12.002 23.941C18.6308 23.9294 24.029 18.4905 23.9942 11.8559C23.9826 9.17421 23.0829 6.69566 21.5795 4.69888Z" fill="url(#paint4_radial)"/>
<path d="M22.9842 8.9246C22.5953 5.43025 20.6334 3.04457 18.1258 1.65147C17.7079 1.41929 17.1796 1.51797 16.8778 1.88946L16.872 1.89527C19.7278 3.65405 21.5273 6.7711 21.6201 10.0217C21.7304 13.9746 18.4857 17.1265 14.7475 17.3064C12.031 17.4399 9.47117 16.1281 8.21738 13.4986C7.93876 12.9123 7.7356 12.3203 7.63112 11.6005C7.03905 7.60696 9.72657 4.19968 12.1935 3.35221C10.8643 2.1913 7.52664 2.27256 5.04809 4.0952C3.26028 5.40703 2.09936 7.4038 1.71626 9.78368C1.42603 11.6005 1.69885 13.487 2.41862 15.1703C3.14999 16.8885 4.33993 18.4035 5.84331 19.5179C7.46859 20.7311 9.43054 21.4334 11.4505 21.5844C11.7466 21.6076 12.0484 21.6192 12.3444 21.6192C20.2793 21.6308 23.7272 15.6173 22.9842 8.9246Z" fill="url(#paint5_radial)"/>
<path d="M22.9842 8.9246C22.5953 5.43025 20.6334 3.04457 18.1258 1.65147C17.7079 1.41929 17.1796 1.51797 16.8778 1.88946L16.872 1.89527C19.7278 3.65405 21.5273 6.7711 21.6201 10.0217C21.7304 13.9746 18.4857 17.1265 14.7475 17.3064C12.031 17.4399 9.47117 16.1281 8.21738 13.4986C7.93876 12.9123 7.7356 12.3203 7.63112 11.6005C7.03905 7.60696 9.72657 4.19968 12.1935 3.35221C10.8643 2.1913 7.52664 2.27256 5.04809 4.0952C3.26028 5.40703 2.09936 7.4038 1.71626 9.78368C1.42603 11.6005 1.69885 13.487 2.41862 15.1703C3.14999 16.8885 4.33993 18.4035 5.84331 19.5179C7.46859 20.7311 9.43054 21.4334 11.4505 21.5844C11.7466 21.6076 12.0484 21.6192 12.3444 21.6192C20.2793 21.6308 23.7272 15.6173 22.9842 8.9246Z" fill="url(#paint6_radial)"/>
<path opacity="0.53" d="M22.9842 8.9246C22.5953 5.43025 20.6334 3.04457 18.1258 1.65147C17.7079 1.41929 17.1796 1.51797 16.8778 1.88946L16.872 1.89527C19.7278 3.65405 21.5273 6.7711 21.6201 10.0217C21.7304 13.9746 18.4857 17.1265 14.7475 17.3064C12.031 17.4399 9.47117 16.1281 8.21738 13.4986C7.93876 12.9123 7.7356 12.3203 7.63112 11.6005C7.03905 7.60696 9.72657 4.19968 12.1935 3.35221C10.8643 2.1913 7.52664 2.27256 5.04809 4.0952C3.26028 5.40703 2.09936 7.4038 1.71626 9.78368C1.42603 11.6005 1.69885 13.487 2.41862 15.1703C3.14999 16.8885 4.33993 18.4035 5.84331 19.5179C7.46859 20.7311 9.43054 21.4334 11.4505 21.5844C11.7466 21.6076 12.0484 21.6192 12.3444 21.6192C20.2793 21.6308 23.7272 15.6173 22.9842 8.9246Z" fill="url(#paint7_radial)"/>
<path opacity="0.53" d="M22.9842 8.9246C22.5953 5.43025 20.6334 3.04457 18.1258 1.65147C17.7079 1.41929 17.1796 1.51797 16.8778 1.88946L16.872 1.89527C19.7278 3.65405 21.5273 6.7711 21.6201 10.0217C21.7304 13.9746 18.4857 17.1265 14.7475 17.3064C12.031 17.4399 9.47117 16.1281 8.21738 13.4986C7.93876 12.9123 7.7356 12.3203 7.63112 11.6005C7.03905 7.60696 9.72657 4.19968 12.1935 3.35221C10.8643 2.1913 7.52664 2.27256 5.04809 4.0952C3.26028 5.40703 2.09936 7.4038 1.71626 9.78368C1.42603 11.6005 1.69885 13.487 2.41862 15.1703C3.14999 16.8885 4.33993 18.4035 5.84331 19.5179C7.46859 20.7311 9.43054 21.4334 11.4505 21.5844C11.7466 21.6076 12.0484 21.6192 12.3444 21.6192C20.2793 21.6308 23.7272 15.6173 22.9842 8.9246Z" fill="url(#paint8_radial)"/>
<path d="M16.8894 1.87784C16.8836 1.88364 16.8836 1.88945 16.8778 1.89525C16.5353 2.31899 16.605 2.93427 17.0229 3.28254C18.8223 4.7569 20.0297 6.85235 20.0297 9.27286C20.0297 12.6163 17.4408 15.1645 14.4108 14.9846C9.90649 14.7117 8.7746 10.1087 11.1138 8.11775C10.4811 7.98425 9.29701 8.24545 8.46696 9.48182C7.72397 10.5905 7.76461 12.297 8.22317 13.5102C9.47695 16.1339 12.0368 17.4805 14.7533 17.318C19.8845 17.0045 22.0787 12.773 22.218 9.76044C22.3689 6.49247 21.6317 3.59599 18.1374 1.64566C17.7136 1.40767 17.1912 1.50635 16.8894 1.87784Z" fill="url(#paint9_radial)"/>
<path d="M21.5795 4.69887C21.2602 4.27514 20.9062 3.88043 20.5347 3.50894C20.2386 3.19549 19.9194 2.90526 19.5827 2.63245C19.7743 2.80078 19.96 2.98072 20.14 3.16647C20.7901 3.86882 21.3067 4.69888 21.6027 5.60439C22.2296 7.49668 22.189 9.87075 20.9932 11.7282C19.5653 13.9456 17.2435 15.0426 14.7359 14.9904C14.6256 14.9904 14.5211 14.9904 14.4108 14.9846C9.9065 14.7118 8.77461 10.1087 11.1138 8.11777C10.4812 7.98426 9.29702 8.24547 8.46696 9.48184C7.72398 10.5905 7.76461 12.2971 8.22317 13.5102C7.94455 12.9239 7.74139 12.3319 7.63691 11.6121C7.04484 7.61857 9.73236 4.21129 12.1993 3.36382C10.8701 2.20291 7.53243 2.28417 5.05388 4.10681C3.60854 5.16904 2.57533 6.67823 2.0297 8.47765C2.11096 7.46765 2.49406 5.96427 3.27768 4.42026C2.44763 4.84979 1.39119 6.20806 0.868784 7.46185C0.11419 9.27288 -0.147016 11.438 0.0909715 13.4986C0.108385 13.6553 0.125799 13.8062 0.143212 13.963C1.10677 19.6282 6.04646 23.9468 11.9845 23.9468C18.6192 23.9468 24 18.566 24 11.9314C23.9942 9.21483 23.0945 6.71306 21.5795 4.69887Z" fill="url(#paint10_linear)"/>
<path d="M21.6027 5.60438C21.3009 4.69887 20.7901 3.86882 20.14 3.16646C18.7469 1.66889 16.6979 0.711132 14.7243 0.27579C13.0642 -0.0898983 11.3228 -0.0840937 9.75561 0.246767C8.04907 0.60665 6.55149 1.34383 5.60535 2.26095C8.87912 0.345444 13.2906 0.699523 16.309 2.84721C16.814 3.2071 17.2841 3.61922 17.7079 4.07198C19.7163 6.23708 20.5347 9.85333 18.8456 12.4538C17.9981 13.7714 16.1755 15.002 14.4747 14.9904C17.081 15.1297 19.5131 14.0268 20.9875 11.734C22.189 9.87074 22.2296 7.49667 21.6027 5.60438Z" fill="url(#paint11_linear)"/>
<path d="M21.6027 5.60438C21.3009 4.69887 20.7901 3.86882 20.14 3.16646C18.7469 1.66889 16.6979 0.711132 14.7243 0.27579C13.0642 -0.0898983 11.3228 -0.0840937 9.75561 0.246767C8.04907 0.60665 6.55149 1.34383 5.60535 2.26095C8.87912 0.345444 13.2906 0.699523 16.309 2.84721C16.814 3.2071 17.2841 3.61922 17.7079 4.07198C19.7163 6.23708 20.5347 9.85333 18.8456 12.4538C17.9981 13.7714 16.1755 15.002 14.4747 14.9904C17.081 15.1297 19.5131 14.0268 20.9875 11.734C22.189 9.87074 22.2296 7.49667 21.6027 5.60438Z" fill="url(#paint12_linear)"/>
<defs>
<radialGradient id="paint0_radial" cx="0" cy="0" r="1" gradientUnits="userSpaceOnUse" gradientTransform="translate(21.4552 4.62388) scale(27.1121)">
<stop stop-color="#FFF44F"/>
<stop offset="0.2949" stop-color="#FF980E"/>
<stop offset="0.4315" stop-color="#FF5D36"/>
<stop offset="0.5302" stop-color="#FF3750"/>
<stop offset="0.7493" stop-color="#F5156C"/>
<stop offset="0.7648" stop-color="#F1136E"/>
<stop offset="0.8801" stop-color="#DA057A"/>
<stop offset="0.9528" stop-color="#D2007F"/>
</radialGradient>
<radialGradient id="paint1_radial" cx="0" cy="0" r="1" gradientUnits="userSpaceOnUse" gradientTransform="translate(1.98532 6.96444) scale(15.659)">
<stop stop-color="#B5007F"/>
<stop offset="1" stop-color="#F5156C" stop-opacity="0"/>
</radialGradient>
<radialGradient id="paint2_radial" cx="0" cy="0" r="1" gradientUnits="userSpaceOnUse" gradientTransform="translate(23.7832 4.47884) scale(29.7019)">
<stop stop-color="#FFDD00" stop-opacity="0.6"/>
<stop offset="0.0836672" stop-color="#FFD801" stop-opacity="0.5244"/>
<stop offset="0.1822" stop-color="#FECA05" stop-opacity="0.4353"/>
<stop offset="0.2884" stop-color="#FEB20C" stop-opacity="0.3394"/>
<stop offset="0.3998" stop-color="#FD9115" stop-opacity="0.2388"/>
<stop offset="0.5154" stop-color="#FB6621" stop-opacity="0.1343"/>
<stop offset="0.6329" stop-color="#F9332F" stop-opacity="0.028164"/>
<stop offset="0.664" stop-color="#F92433" stop-opacity="0"/>
</radialGradient>
<radialGradient id="paint3_radial" cx="0" cy="0" r="1" gradientUnits="userSpaceOnUse" gradientTransform="translate(12.6816 14.078) scale(39.9059)">
<stop offset="0.1528" stop-color="#960E18"/>
<stop offset="0.2061" stop-color="#CC2335" stop-opacity="0.5541"/>
<stop offset="0.2495" stop-color="#F13148" stop-opacity="0.1914"/>
<stop offset="0.2724" stop-color="#FF3750" stop-opacity="0"/>
</radialGradient>
<radialGradient id="paint4_radial" cx="0" cy="0" r="1" gradientUnits="userSpaceOnUse" gradientTransform="translate(9.55969 13.5962) scale(40.1837)">
<stop offset="0.1129" stop-color="#960E18"/>
<stop offset="0.1893" stop-color="#CC2335" stop-opacity="0.5541"/>
<stop offset="0.2515" stop-color="#F13148" stop-opacity="0.1914"/>
<stop offset="0.2843" stop-color="#FF3750" stop-opacity="0"/>
</radialGradient>
<radialGradient id="paint5_radial" cx="0" cy="0" r="1" gradientUnits="userSpaceOnUse" gradientTransform="translate(20.8818 3.8386) scale(25.2514)">
<stop stop-color="#FF980E"/>
<stop offset="0.295" stop-color="#FF7139"/>
<stop offset="0.4846" stop-color="#FF5B51"/>
<stop offset="0.626" stop-color="#FF4F5E"/>
<stop offset="0.7365" stop-color="#FF4055"/>
<stop offset="0.8428" stop-color="#FF3750"/>
</radialGradient>
<radialGradient id="paint6_radial" cx="0" cy="0" r="1" gradientUnits="userSpaceOnUse" gradientTransform="translate(20.8818 4.76674) scale(23.9544)">
<stop offset="0.0840745" stop-color="#FFDE08"/>
<stop offset="0.2081" stop-color="#FFD609" stop-opacity="0.832"/>
<stop offset="0.4033" stop-color="#FFBF0B" stop-opacity="0.5677"/>
<stop offset="0.6437" stop-color="#FF9B0F" stop-opacity="0.242"/>
<stop offset="0.8224" stop-color="#FF7B12" stop-opacity="0"/>
</radialGradient>
<radialGradient id="paint7_radial" cx="0" cy="0" r="1" gradientUnits="userSpaceOnUse" gradientTransform="translate(14.9757 12.2108) rotate(75.6841) scale(12.0573 12.5828)">
<stop offset="0.3634" stop-color="#FF3750"/>
<stop offset="0.4111" stop-color="#FF444B" stop-opacity="0.7895"/>
<stop offset="0.5902" stop-color="#FF7139" stop-opacity="0"/>
</radialGradient>
<radialGradient id="paint8_radial" cx="0" cy="0" r="1" gradientUnits="userSpaceOnUse" gradientTransform="translate(12.8149 13.2049) rotate(75.6841) scale(12.1951 12.2056)">
<stop offset="0.2159" stop-color="#FF3750" stop-opacity="0.8"/>
<stop offset="0.2702" stop-color="#FF444B" stop-opacity="0.6316"/>
<stop offset="0.4739" stop-color="#FF7139" stop-opacity="0"/>
</radialGradient>
<radialGradient id="paint9_radial" cx="0" cy="0" r="1" gradientUnits="userSpaceOnUse" gradientTransform="translate(25.9915 0.924425) scale(42.7212)">
<stop offset="0.0535657" stop-color="#FFF44F"/>
<stop offset="0.4573" stop-color="#FF980E"/>
<stop offset="0.5211" stop-color="#FF8424"/>
<stop offset="0.5871" stop-color="#FF7634"/>
<stop offset="0.6393" stop-color="#FF7139"/>
</radialGradient>
<linearGradient id="paint10_linear" x1="17.7022" y1="2.11293" x2="5.45412" y2="23.3272" gradientUnits="userSpaceOnUse">
<stop stop-color="#FFF44F" stop-opacity="0.8"/>
<stop offset="0.75" stop-color="#FFF44F" stop-opacity="0"/>
</linearGradient>
<linearGradient id="paint11_linear" x1="13.8028" y1="15.0606" x2="13.8028" y2="0.152697" gradientUnits="userSpaceOnUse">
<stop stop-color="#3A8EE6"/>
<stop offset="0.1016" stop-color="#4D82EB"/>
<stop offset="0.3885" stop-color="#7D65FA"/>
<stop offset="0.5309" stop-color="#9059FF"/>
<stop offset="0.6915" stop-color="#9D50F8"/>
<stop offset="0.9888" stop-color="#C03AE7"/>
<stop offset="1" stop-color="#C139E6"/>
</linearGradient>
<linearGradient id="paint12_linear" x1="11.181" y1="-0.389327" x2="19.3142" y2="13.6978" gradientUnits="userSpaceOnUse">
<stop offset="0.8054" stop-color="#9059FF" stop-opacity="0"/>
<stop offset="1" stop-color="#6E008B" stop-opacity="0.5"/>
</linearGradient>
</defs>
</svg>
