<svg width="24" height="24" viewBox="0 0 24 24" fill="none" xmlns="http://www.w3.org/2000/svg">
<path d="M21.5808 18.7033C21.2217 19.5418 20.7967 20.3136 20.3043 21.0232C19.633 21.9906 19.0834 22.6602 18.6598 23.032C18.0032 23.6424 17.2997 23.955 16.5464 23.9728C16.0056 23.9728 15.3534 23.8172 14.5942 23.5017C13.8325 23.1876 13.1325 23.032 12.4925 23.032C11.8212 23.032 11.1013 23.1876 10.3312 23.5017C9.56002 23.8172 8.93874 23.9816 8.46373 23.9979C7.74132 24.0291 7.02125 23.7076 6.30251 23.032C5.84376 22.6276 5.26997 21.9343 4.58259 20.9521C3.84508 19.9032 3.23875 18.687 2.76374 17.3004C2.25502 15.8026 2 14.3523 2 12.9482C2 11.3398 2.34384 9.95259 3.03254 8.7901C3.57379 7.85635 4.29386 7.11978 5.19508 6.57906C6.09629 6.03834 7.07006 5.76279 8.11872 5.74516C8.69251 5.74516 9.44497 5.92456 10.38 6.27714C11.3125 6.63091 11.9112 6.81031 12.1737 6.81031C12.3699 6.81031 13.035 6.60054 14.1625 6.18233C15.2288 5.79449 16.1287 5.6339 16.8659 5.69716C18.8635 5.86012 20.3644 6.65609 21.3625 8.09013C19.5758 9.18431 18.6921 10.7169 18.7097 12.6829C18.7258 14.2142 19.2754 15.4886 20.3556 16.5004C20.8451 16.97 21.3918 17.333 22 17.5907C21.8681 17.9774 21.7289 18.3477 21.5808 18.7033V18.7033ZM16.9993 0.480134C16.9993 1.68041 16.5654 2.8011 15.7007 3.8384C14.6572 5.07155 13.395 5.78412 12.0262 5.67168C12.0088 5.52768 11.9987 5.37613 11.9987 5.21688C11.9987 4.06462 12.4949 2.83147 13.3762 1.8232C13.8162 1.3127 14.3758 0.888225 15.0544 0.549613C15.7315 0.216053 16.372 0.0315842 16.9744 0C16.9919 0.160454 16.9993 0.320924 16.9993 0.480119V0.480134Z" fill="#1A1A1A"/>
</svg>
