<svg width="25" height="24" viewBox="0 0 25 24" fill="none" xmlns="http://www.w3.org/2000/svg">
<path fill-rule="evenodd" clip-rule="evenodd" d="M24.3498 12.2719C24.3498 11.421 24.2719 10.6028 24.1272 9.81738H12.5947V14.4591H19.1847C18.9008 15.9591 18.0381 17.23 16.7413 18.0809V21.0917H20.6986C23.014 19.0027 24.3498 15.9264 24.3498 12.2719V12.2719Z" fill="#1F87FC"/>
<path fill-rule="evenodd" clip-rule="evenodd" d="M12.5948 24.0001C15.9009 24.0001 18.6727 22.9256 20.6987 21.0929L16.7414 18.082C15.6449 18.802 14.2423 19.2275 12.5948 19.2275C9.40559 19.2275 6.70614 17.1166 5.74325 14.2803H1.65234V17.3893C3.66718 21.3111 7.80818 24.0001 12.5948 24.0001V24.0001Z" fill="#00AB47"/>
<path fill-rule="evenodd" clip-rule="evenodd" d="M5.74293 14.2803C5.49803 13.5603 5.35889 12.7912 5.35889 12.0003C5.35889 11.2094 5.49803 10.4403 5.74293 9.72036V6.61133H1.65202C0.822708 8.2313 0.349609 10.064 0.349609 12.0003C0.349609 13.9366 0.822708 15.7693 1.65202 17.3893L5.74293 14.2803V14.2803Z" fill="#FFB900"/>
<path fill-rule="evenodd" clip-rule="evenodd" d="M12.5948 4.77264C14.3926 4.77264 16.0067 5.37808 17.2757 6.56715L20.7878 3.1254C18.6672 1.18907 15.8954 0 12.5948 0C7.80819 0 3.66719 2.68904 1.65234 6.61079L5.74325 9.71982C6.70615 6.88351 9.40559 4.77264 12.5948 4.77264V4.77264Z" fill="#FE2B25"/>
</svg>
